<svg xmlns="http://www.w3.org/2000/svg" width="31.75" height="35" viewBox="0 0 31.75 35">
  <path id="support_icon4_w" d="M24.417,30.542a4.26,4.26,0,0,1-3.1-1.25,4.157,4.157,0,0,1-1.27-3.084,4.39,4.39,0,0,1,7.479-3.1,4.223,4.223,0,0,1,1.271,3.1,4.155,4.155,0,0,1-1.271,3.084A4.259,4.259,0,0,1,24.417,30.542ZM7.625,37.5a3.36,3.36,0,0,1-2.458-1.042A3.36,3.36,0,0,1,4.125,34V8.667A3.363,3.363,0,0,1,5.167,6.208,3.361,3.361,0,0,1,7.625,5.167H9.083V2.5h3.625V5.167H27.292V2.5h3.625V5.167h1.458a3.361,3.361,0,0,1,2.458,1.041,3.363,3.363,0,0,1,1.042,2.459V34a3.559,3.559,0,0,1-3.5,3.5Zm0-3.5h24.75V15.833H7.625Zm0-21.667h24.75V8.667H7.625Zm0,0v0Z" transform="translate(-4.125 -2.5)" fill="#fff"/>
</svg>
