<svg xmlns="http://www.w3.org/2000/svg" width="37.125" height="37.166" viewBox="0 0 37.125 37.166">
  <path id="support_icon3" d="M27,20.292q-2.042-1.875-3.917-3.646a46.793,46.793,0,0,1-3.312-3.438,19.88,19.88,0,0,1-2.333-3.27,6.364,6.364,0,0,1-.9-3.105,5.761,5.761,0,0,1,5.833-5.791,5.194,5.194,0,0,1,2.542.666A8.088,8.088,0,0,1,27,3.333a7.85,7.85,0,0,1,2.125-1.625,5.427,5.427,0,0,1,2.583-.666,5.52,5.52,0,0,1,4.084,1.687,5.624,5.624,0,0,1,1.666,4.1,6.364,6.364,0,0,1-.9,3.105,19.88,19.88,0,0,1-2.333,3.27A44.537,44.537,0,0,1,30.9,16.646Q29,18.417,27,20.292Zm0-4.75q2.5-2.459,4.729-4.854t2.229-3.855a2.252,2.252,0,0,0-.625-1.666,2.2,2.2,0,0,0-1.625-.625,2.41,2.41,0,0,0-1.187.312,4.184,4.184,0,0,0-1.146,1.021L27,8.667,24.625,5.833a3.855,3.855,0,0,0-1.146-1,2.466,2.466,0,0,0-1.146-.291,2.151,2.151,0,0,0-2.291,2.291q0,1.459,2.229,3.855T27,15.542ZM23.625,38.208l-12.25-3.416v2.541H.542V18.042H14.833l10.75,4.083a5.125,5.125,0,0,1,2.375,1.583,4.858,4.858,0,0,1,.834,3.084h3.666a5.058,5.058,0,0,1,3.688,1.5,5.153,5.153,0,0,1,1.521,3.833v1.75ZM4.042,33.833H7.833V21.542H4.042Zm19.416.709,10.584-3.25a1.388,1.388,0,0,0-.584-.792,2.062,2.062,0,0,0-1-.208H23.75a13.842,13.842,0,0,1-2.229-.167,15.3,15.3,0,0,1-1.979-.458l-3.417-1.125,1.083-3.334,2.917,1a12.628,12.628,0,0,0,2,.459,27.085,27.085,0,0,0,3.167.125,1.564,1.564,0,0,0-.23-.834,1.547,1.547,0,0,0-.645-.583L14.208,21.542H11.375v9.625ZM7.833,27.708ZM25.292,26.792ZM7.833,27.708ZM11.375,27.708ZM27,10.042Z" transform="translate(-0.542 -1.042)" fill="#3d3d3d"/>
</svg>
