<svg xmlns="http://www.w3.org/2000/svg" width="35.084" height="28.334" viewBox="0 0 35.084 28.334">
  <path id="support_icon1_w" d="M5.958,34.167A3.362,3.362,0,0,1,3.5,33.125a3.362,3.362,0,0,1-1.042-2.458V9.333A3.362,3.362,0,0,1,3.5,6.875,3.362,3.362,0,0,1,5.958,5.833H34.042A3.362,3.362,0,0,1,36.5,6.875a3.362,3.362,0,0,1,1.042,2.458V30.667a3.559,3.559,0,0,1-3.5,3.5ZM20,21.667,5.958,12.75V30.667H34.042V12.75Zm0-3.375L34.167,9.333H5.875ZM5.708,12.75V30.667h0Z" transform="translate(-2.458 -5.833)" fill="#fff"/>
</svg>
