<svg xmlns="http://www.w3.org/2000/svg" width="38.25" height="29.375" viewBox="0 0 38.25 29.375">
  <path id="support_icon2" d="M30.25,23.542V18.208H24.917v-3.5H30.25V9.375h3.5v5.333h5.333v3.5H33.75v5.334ZM15,19.625a6.77,6.77,0,0,1-7-7,6.77,6.77,0,0,1,7-7,6.77,6.77,0,0,1,7,7,6.77,6.77,0,0,1-7,7ZM.833,35V30a5.542,5.542,0,0,1,.792-2.958,5.051,5.051,0,0,1,2.208-1.959A28.1,28.1,0,0,1,9.562,23,23.934,23.934,0,0,1,15,22.375,23.663,23.663,0,0,1,20.417,23a28.247,28.247,0,0,1,5.708,2.083,5.176,5.176,0,0,1,2.229,1.959A5.433,5.433,0,0,1,29.167,30v5Zm3.5-3.5H25.667V30a2.119,2.119,0,0,0-.271-1.062,1.58,1.58,0,0,0-.729-.688,26.546,26.546,0,0,0-5-1.833A19.86,19.86,0,0,0,15,25.875a20.125,20.125,0,0,0-4.688.542A25.416,25.416,0,0,0,5.333,28.25a1.448,1.448,0,0,0-.75.688A2.26,2.26,0,0,0,4.333,30ZM15,16.125a3.418,3.418,0,0,0,3.5-3.5,3.418,3.418,0,0,0-3.5-3.5,3.418,3.418,0,0,0-3.5,3.5,3.418,3.418,0,0,0,3.5,3.5ZM15,12.625ZM15,31.5Z" transform="translate(-0.833 -5.625)" fill="#3d3d3d"/>
</svg>
