<svg width="250" height="41" viewBox="0 0 250 41" fill="none" xmlns="http://www.w3.org/2000/svg">
<path d="M26.0562 11.3483C26.115 10.5055 25.8462 9.73559 25.4599 9.00621C25.1827 8.47133 24.788 8.00938 24.3093 7.62848C23.9734 7.36104 23.587 7.15033 23.1923 6.96393C22.6464 6.7127 22.0669 6.63166 21.4707 6.58303C20.8324 6.5263 20.2025 6.60735 19.6062 6.80185C19.1359 6.94772 18.6908 7.15844 18.2961 7.4664C18.0693 7.64469 17.8426 7.83109 17.6326 8.02559C17.515 8.13905 17.3975 8.26062 17.2967 8.39028C17.0195 8.76308 16.7676 9.16019 16.5576 9.57351C16.2973 10.0841 16.1965 10.6271 16.0369 11.1619C16.0033 11.2754 15.953 11.3808 15.9026 11.478C15.7178 11.8346 15.3735 11.7374 15.1635 11.5428C15.1131 11.4942 15.0627 11.4375 15.0207 11.3889C14.8444 11.1619 14.6092 11.1457 14.3489 11.2187C14.1473 11.2754 13.9541 11.3402 13.761 11.4132C13.3495 11.5753 13.1479 11.4537 12.9379 11.1701C12.854 11.0485 12.77 10.9269 12.6692 10.8135C12.4844 10.6109 12.1905 10.5055 11.8882 10.6595C11.7118 10.7486 11.4934 10.781 11.2919 10.8135C10.9811 10.8621 10.6536 10.8864 10.3429 10.935C10.1077 10.9674 9.88095 10.935 9.67099 10.8297C9.29307 10.6433 9.28467 10.2056 9.629 9.97062C10.0741 9.67076 10.5612 9.46005 11.0315 9.21692C11.5774 8.94138 12.0897 8.63341 12.4508 8.13905C12.56 7.99318 12.6356 7.83109 12.7196 7.67711C12.8372 7.4664 12.9379 7.24758 13.0639 7.04498C13.2655 6.73701 13.4754 6.43716 13.6938 6.1454C13.9541 5.79692 14.2733 5.48896 14.6176 5.20531C14.9955 4.88924 15.4239 4.6218 15.8354 4.34625C16.3981 3.97346 17.0279 3.72222 17.6494 3.45478C17.9938 3.30891 18.3465 3.18734 18.6992 3.05767C19.1107 2.90369 19.3879 2.62004 19.5726 2.23914C19.6566 2.06895 19.7826 1.90687 19.875 1.74478C20.0429 1.44492 20.2613 1.17748 20.4713 0.910041C20.6056 0.739851 20.7652 0.593974 20.9584 0.512931C21.2607 0.391367 21.4875 0.431889 21.563 0.764164C21.647 1.13696 21.7478 1.50165 21.7898 1.87445C21.8402 2.27156 22.0837 2.49848 22.4029 2.67677C22.5205 2.74161 22.6548 2.78213 22.7808 2.81454C23.1419 2.9118 23.5031 3.00094 23.8558 3.13872C24.3345 3.33322 24.8132 3.51151 25.2751 3.75464C25.9134 4.08692 26.5097 4.46782 27.0808 4.89734C27.5763 5.27014 28.0214 5.69156 28.4329 6.1454C28.9704 6.74512 29.4239 7.40967 29.7598 8.14716C30.0958 8.87654 30.3141 9.63024 30.4065 10.4164C30.4569 10.8864 30.4821 11.3564 30.4569 11.8265C30.4233 12.4262 30.3141 13.0178 30.1546 13.6013C30.0034 14.1362 29.7766 14.6387 29.5415 15.133C29.3399 15.5464 29.0628 15.9354 28.794 16.3163C28.5169 16.6972 28.2229 17.0619 27.9122 17.4103C27.6686 17.6859 27.3915 17.929 27.1227 18.1802C26.8624 18.4234 26.6021 18.6665 26.3249 18.8772C25.947 19.169 25.5355 19.4283 25.1575 19.7201C24.9644 19.8659 24.7796 20.028 24.62 20.2144C24.3933 20.4738 24.3933 20.7817 24.5361 21.0816C24.7796 21.6165 25.082 22.1189 25.4263 22.589C25.6782 22.9294 25.9722 23.2535 26.2829 23.5534C26.6776 23.9424 27.1227 24.2666 27.6099 24.5421C28.2313 24.8987 28.9032 25.0851 29.6087 25.2229C30.3477 25.3606 31.0532 25.2553 31.7586 25.0689C32.3213 24.923 32.8168 24.6556 33.2619 24.3152C33.9002 23.837 34.4209 23.2535 34.7904 22.5566C34.9836 22.1919 35.1432 21.8191 35.2607 21.422C35.4035 20.9438 35.4539 20.4575 35.4539 19.9551C35.4539 19.4688 35.3699 19.0069 35.2523 18.5368C35.1096 17.9857 34.8324 17.4995 34.5049 17.0457C34.2697 16.7215 33.9758 16.4297 33.6651 16.1623C33.3795 15.9111 33.0436 15.7328 32.716 15.5383C32.5145 15.4167 32.2793 15.3438 32.0526 15.2708C31.8594 15.206 31.6579 15.1493 31.4479 15.1087C31.2379 15.0682 31.1204 14.9466 31.0784 14.7602C31.0364 14.582 31.112 14.4442 31.2547 14.3307C31.4983 14.1524 31.5067 13.9174 31.4227 13.6662C31.4059 13.6256 31.3807 13.5851 31.3723 13.5365C31.3387 13.423 31.3051 13.3096 31.2883 13.1961C31.2547 12.9287 31.2883 12.6856 31.5151 12.4748C31.6327 12.3614 31.7082 12.1912 31.7838 12.0372C31.8762 11.8427 31.893 11.632 31.8258 11.4294C31.8174 11.3889 31.8006 11.3564 31.7922 11.3159C31.7166 11.0566 31.6159 10.8135 31.5655 10.5379C31.5067 10.1732 31.4143 9.81664 31.4311 9.44384C31.4311 9.37901 31.4059 9.30607 31.4059 9.24123C31.3975 9.13588 31.3975 9.03863 31.5067 8.97379C31.6075 8.91706 31.725 8.92517 31.8342 9.03052C31.9854 9.1683 32.145 9.30607 32.2625 9.46815C32.5481 9.84905 32.8084 10.2462 33.0856 10.6433C33.1612 10.7486 33.2535 10.854 33.3375 10.9512C33.3627 10.9837 33.3963 10.9999 33.4215 11.0323C33.707 11.4699 34.1606 11.7049 34.5805 11.9805C35.0424 12.2884 35.4959 12.6045 35.9494 12.9206C36.4701 13.2853 36.9572 13.6986 37.4023 14.1524C37.965 14.7278 38.4521 15.3519 38.8216 16.065C39.1156 16.6323 39.3843 17.2077 39.6027 17.8075C39.6699 18.002 39.7707 18.1884 39.8546 18.3829C40.0142 18.7313 40.2914 18.9421 40.6357 19.1041C40.9464 19.2419 41.2488 19.3959 41.5595 19.5499C41.6435 19.5904 41.7191 19.6552 41.7863 19.7201C41.8114 19.7444 41.845 19.7768 41.8534 19.8092C41.9626 20.1334 41.8115 20.4008 41.4755 20.4981C41.1732 20.5791 40.8792 20.6764 40.5685 20.7331C40.241 20.7979 40.0394 21.0005 39.9218 21.268C39.7455 21.6813 39.6111 22.1108 39.4599 22.5322C39.3591 22.8078 39.2332 23.0752 39.1324 23.3508C38.9644 23.8208 38.7041 24.2422 38.4521 24.6718C38.175 25.1418 37.839 25.5795 37.4779 25.9928C36.6801 26.9004 35.7227 27.6136 34.6309 28.1566C34.4377 28.2539 34.2361 28.3268 34.0346 28.3997C33.7406 28.5051 33.4551 28.6186 33.1528 28.6996C32.5649 28.8536 31.9602 28.9346 31.3555 28.9832C31.0868 28.9995 30.8096 29.0157 30.5409 29.0157C29.9278 29.0157 29.3315 28.9427 28.7268 28.8374C27.9374 28.7077 27.1983 28.4403 26.4845 28.0999C26.0814 27.9054 25.6698 27.6947 25.2919 27.4596C24.9728 27.257 24.6872 27.0058 24.3933 26.7708C24.1077 26.5358 23.8138 26.3088 23.5619 26.0495C23.2343 25.7172 22.9404 25.3606 22.6464 25.004C22.4701 24.7933 22.3273 24.5583 22.1509 24.3557C21.9242 24.0883 21.6806 23.8451 21.3111 23.7722C21.0759 23.7317 20.866 23.7722 20.6728 23.8857C20.5468 23.9586 20.4293 24.0315 20.3117 24.1126C19.6986 24.534 19.0855 24.9554 18.548 25.466C17.977 26.0009 17.4899 26.6087 17.1707 27.3219C16.8516 28.035 16.6668 28.7806 16.6584 29.5668C16.65 30.0368 16.6668 30.4906 16.8012 30.9445C16.9272 31.3659 17.1287 31.763 17.3471 32.152C17.5318 32.4843 17.7922 32.7598 18.0525 33.0273C18.5228 33.5135 19.0939 33.8782 19.7406 34.1051C20.6056 34.4131 21.5127 34.5347 22.4365 34.3564C22.9572 34.2591 23.4443 34.0727 23.8978 33.7972C24.4017 33.4892 24.8384 33.1164 25.2331 32.6869C25.5355 32.3546 25.7958 31.9899 26.0226 31.609C26.3081 31.1309 26.5517 30.6203 26.6944 30.0773C26.728 29.9395 26.77 29.8099 26.8204 29.6802C26.9296 29.3804 27.2739 29.3155 27.4839 29.5586C27.6267 29.7207 27.761 29.899 27.887 30.0773C28.0886 30.3529 28.3153 30.4177 28.6345 30.2556C28.8024 30.1746 28.9704 30.0935 29.1719 30.0935C29.3903 30.0854 29.5583 30.1584 29.7094 30.2961C29.8438 30.4177 29.9698 30.5474 30.0958 30.677C30.2217 30.8148 30.3645 30.8553 30.5493 30.831C30.9608 30.7824 31.3219 30.5798 31.7082 30.4582C31.9686 30.3772 32.2205 30.2799 32.5061 30.2961C32.5481 30.2961 32.5901 30.2961 32.6237 30.3042C32.8504 30.3529 32.9176 30.515 32.7664 30.677C32.6069 30.8472 32.4221 30.9931 32.2373 31.1471C31.9434 31.3902 31.6411 31.6333 31.3471 31.8765C31.2631 31.9494 31.1708 32.0061 31.0952 32.0872C30.9692 32.2087 30.8432 32.3465 30.7172 32.4762C30.4401 32.7598 30.2133 33.084 30.0034 33.4325C29.8102 33.7486 29.5751 34.0484 29.3483 34.3483C29.1132 34.6562 28.878 34.9561 28.6345 35.2478C28.1977 35.7503 27.6854 36.1879 27.1395 36.5851C26.6776 36.9173 26.1653 37.1767 25.6614 37.4279C25.5607 37.4765 25.4515 37.5089 25.3507 37.5414C24.8468 37.7034 24.3345 37.8574 23.8306 38.0357C23.4191 38.1816 23.0831 38.4085 22.9236 38.8299C22.764 39.2433 22.5205 39.6161 22.2601 39.9807C22.1509 40.1428 21.9746 40.2725 21.7982 40.386C21.605 40.5156 21.3699 40.4427 21.2943 40.2239C21.2271 40.0375 21.1851 39.8349 21.1599 39.6404C21.1347 39.3648 21.0843 39.1055 20.95 38.8624C20.824 38.6273 20.6224 38.4652 20.4041 38.3194C20.0933 38.1168 19.7322 38.0357 19.3711 37.9709C19.0267 37.9142 18.6908 37.825 18.3633 37.6791C18.0945 37.5576 17.809 37.4684 17.5402 37.3469C17.2547 37.2091 16.9692 37.0632 16.7004 36.9011C16.0873 36.5445 15.5498 36.0988 15.0207 35.6287C14.8024 35.4342 14.6176 35.1911 14.4245 34.9723C14.2397 34.7616 14.0549 34.5509 13.8954 34.324C13.6182 33.9268 13.3747 33.5135 13.1479 33.084C12.9212 32.6464 12.7616 32.1925 12.6188 31.7225C12.5432 31.455 12.4424 31.1876 12.3921 30.9202C12.3333 30.6203 12.2997 30.3123 12.2829 30.0044C12.2577 29.6235 12.2325 29.2426 12.2493 28.8698C12.2829 28.3025 12.2913 27.7271 12.4928 27.176C12.6524 26.7465 12.7532 26.3007 12.9883 25.8955C13.2403 25.4417 13.509 24.9959 13.845 24.5826C14.3909 23.9019 15.0291 23.3103 15.701 22.743C15.9614 22.5241 16.2385 22.3215 16.4904 22.1027C16.8852 21.7623 17.2799 21.422 17.6494 21.0654C17.8342 20.8871 17.9518 20.6683 17.9266 20.4008C17.9182 20.3279 17.9182 20.263 17.9266 20.1901C17.977 19.8254 17.8006 19.5418 17.5738 19.2824C17.3051 18.9664 17.0111 18.6665 16.7592 18.3423C16.3561 17.8156 15.869 17.3698 15.3651 16.9565C15.0039 16.6647 14.6092 16.4216 14.1809 16.2109C13.4167 15.8381 12.602 15.749 11.7706 15.7976C11.1995 15.83 10.6536 15.9597 10.1329 16.2028C9.52822 16.4784 9.00752 16.843 8.56241 17.3131C8.14249 17.7588 7.81496 18.2694 7.5882 18.8448C7.43703 19.25 7.28586 19.6471 7.24387 20.0685C7.19348 20.4657 7.16828 20.8628 7.19348 21.268C7.22707 21.6813 7.24387 22.1027 7.34465 22.5079C7.54621 23.3265 7.87375 24.0721 8.52042 24.6718C8.73878 24.8744 8.98233 25.0284 9.23428 25.1823C9.72138 25.4822 10.2757 25.6038 10.8216 25.7496C10.8636 25.7577 10.8972 25.7658 10.9391 25.7821C11.3171 25.8793 11.4095 26.1548 11.1659 26.4466C10.8888 26.7789 10.8804 26.9248 11.0903 27.3057C11.2919 27.6622 11.3255 28.0188 11.1155 28.3916C11.0399 28.5213 10.9727 28.651 10.9139 28.7887C10.7712 29.1129 10.8384 29.4209 10.9643 29.7288C11.0315 29.8909 11.0651 30.0692 11.1071 30.2394C11.1323 30.3286 11.1323 30.4258 11.1743 30.5068C11.3507 30.8959 11.3507 31.3011 11.3591 31.7144C11.3591 31.7792 11.3255 31.8927 11.2835 31.9089C11.1995 31.9332 11.0819 31.9332 11.0147 31.8846C10.872 31.7792 10.7292 31.6496 10.6368 31.5037C10.3177 31.0093 9.95654 30.5474 9.54502 30.1341C9.25947 29.8423 8.93194 29.5911 8.6128 29.3398C8.25167 29.0562 7.87375 28.7968 7.51262 28.5213C7.1179 28.2214 6.72317 27.9135 6.35365 27.5893C6.01771 27.2976 5.70697 26.9734 5.39624 26.6492C4.88394 26.1224 4.48082 25.5227 4.13648 24.8825C4.01891 24.6718 3.90973 24.453 3.80055 24.2422C3.69137 24.0315 3.60739 23.8046 3.48141 23.5939C3.30505 23.2859 3.19587 22.9537 3.06989 22.6295C2.98591 22.4107 2.88513 22.2 2.75916 21.9974C2.70877 21.9082 2.60799 21.8353 2.50721 21.7948C2.08729 21.5921 1.64218 21.422 1.23066 21.2112C0.827537 21.0086 0.424417 20.7979 0.172467 20.4008C0.0632881 20.2225 -0.0206959 20.0442 0.00449911 19.8335C0.0128974 19.712 0.00449911 19.5823 0.00449911 19.4607C0.0128974 19.3311 0.0632879 19.2743 0.197661 19.2743C0.298442 19.2743 0.416018 19.2662 0.5084 19.3067C1.07109 19.5418 1.66737 19.5337 2.25526 19.5175C2.48201 19.5093 2.66677 19.3959 2.81794 19.2419C3.0195 19.0312 3.12868 18.78 3.21267 18.5125C3.29665 18.237 3.38063 17.9614 3.50661 17.7021C3.74176 17.1915 4.00211 16.6972 4.34644 16.2514C4.5648 15.9678 4.76636 15.6679 5.00991 15.4086C5.25346 15.133 5.54741 14.9061 5.79936 14.6387C6.03451 14.3874 6.30326 14.1929 6.5888 13.9984C6.84915 13.8201 7.1095 13.6419 7.37824 13.4717C7.84855 13.1799 8.36925 12.9773 8.88995 12.7666C9.34346 12.5883 9.82216 12.4992 10.3009 12.41C10.6284 12.3452 10.9643 12.2884 11.2919 12.2641C11.9385 12.2074 12.5852 12.1993 13.2319 12.3046C13.8702 12.41 14.5084 12.4992 15.1215 12.718C15.8018 12.9611 16.4653 13.2285 17.0615 13.6175C17.4647 13.885 17.8762 14.1362 18.2541 14.428C18.5732 14.6711 18.8588 14.9547 19.1443 15.2303C19.539 15.6112 19.9002 16.0245 20.2277 16.4702C20.3873 16.6891 20.5552 16.9079 20.7232 17.1186C21.1095 17.6129 21.8738 17.6616 22.3189 17.1996C22.6296 16.8755 22.9908 16.608 23.3183 16.3001C23.5535 16.0812 23.7802 15.8543 23.9986 15.6193C24.2505 15.36 24.4941 15.0925 24.7208 14.817C24.9224 14.5738 25.0904 14.3145 25.2667 14.0633C25.3591 13.9255 25.4599 13.7958 25.5355 13.65C25.8714 12.9044 26.0982 12.1507 26.0562 11.3483Z" fill="white"/>
<path d="M101.835 11.802C101.599 11.7129 101.364 11.5508 101.121 11.5427C99.5418 11.4778 97.9629 11.4292 96.4596 12.0775C95.4098 12.5314 94.2928 12.6854 93.159 12.6448C91.1266 12.5719 89.8417 10.3432 90.8579 8.64133C91.5382 7.49863 92.5711 6.89891 93.9569 6.88271C95.8549 6.8665 97.7613 6.97185 99.6426 6.76925C102.935 6.41266 106.218 6.72062 109.502 6.61526C110.535 6.58285 111.568 6.39645 112.593 6.40455C113.937 6.41266 115.289 6.4937 116.632 6.63147C118.463 6.81787 120.26 7.17446 121.999 7.84711C123.108 8.27664 123.704 9.35451 122.528 10.5053C121.419 11.5751 120.118 12.0289 118.598 11.8263C117.447 11.6723 116.305 11.3806 115.154 11.1942C113.962 11.0078 112.752 10.87 111.551 10.7322C111.333 10.7079 111.048 10.6917 110.896 10.8052C110.67 10.9673 110.434 11.2266 110.392 11.4697C110.367 11.6156 110.686 11.9074 110.905 11.9641C111.241 12.0613 111.619 12.0046 111.98 12.037C112.652 12.1019 113.332 12.1181 113.979 12.272C115.255 12.5719 115.793 13.2202 115.919 14.4602C115.969 14.9384 115.994 15.4165 116.011 15.8947C116.078 19.2012 116.145 22.5077 116.196 25.8143C116.229 27.7269 115.482 29.4855 114.827 31.2279C114.289 32.6543 112.442 33.2621 111.241 32.395C109.569 31.1793 107.764 31.4468 105.933 31.5764C105.437 31.6088 104.95 31.7628 104.463 31.7466C103.489 31.7142 102.59 31.9249 101.709 32.2896C101.171 32.5084 100.608 32.6867 100.046 32.8407C98.6432 33.2297 97.9125 32.9298 97.3414 31.6332C96.6443 30.0528 96.3924 28.3671 96.4344 26.6571C96.4848 24.6149 96.6359 22.5807 96.6695 20.5384C96.6863 19.5011 96.5772 18.4556 96.468 17.4264C96.2832 15.6272 97.543 13.6579 99.3318 13.0582C99.8441 12.888 100.365 12.7664 100.877 12.5962C101.23 12.4747 101.566 12.3045 101.91 12.1586C101.868 12.037 101.851 11.9155 101.835 11.802ZM106.395 21.7297C107.243 22.1917 108.167 22.5564 108.898 23.1318C110.115 24.0962 109.763 24.9877 108.662 25.6603C106.823 26.7787 104.799 26.6085 102.784 26.1385C102.742 26.1304 102.7 26.106 102.666 26.0817C102.086 25.6117 101.339 25.1984 101.331 24.3879C101.322 23.5694 101.935 23.075 102.666 22.7266C102.91 22.605 103.136 22.4429 103.371 22.297C103.044 22.1674 102.784 22.216 102.532 22.2322C102.212 22.2484 101.902 22.2241 101.583 22.2565C100.726 22.3295 100.256 22.8319 100.331 23.6342C100.415 24.4933 100.541 25.3523 100.709 26.2033C100.944 27.427 101.02 27.5081 102.296 27.4676C103.825 27.427 105.353 27.2812 106.882 27.2244C107.646 27.2001 108.41 27.2893 109.183 27.2974C110.266 27.3055 110.544 27.2163 110.745 26.2438C110.98 25.1092 110.98 23.926 111.064 22.7671C111.115 22.0458 110.678 21.7378 109.981 21.7297C108.755 21.7216 107.554 21.7297 106.395 21.7297ZM111.098 16.7537C110.905 16.6159 110.594 16.2188 110.266 16.2107C109.796 16.1945 109.485 16.5916 109.511 17.1022C109.536 17.5885 109.771 17.945 110.292 18.0099C110.695 18.0585 111.131 17.4831 111.098 16.7537ZM101.734 17.1751C101.171 17.086 100.642 16.9482 100.583 17.6533C100.566 17.8559 100.827 18.253 101.003 18.2692C101.767 18.3746 101.86 17.8883 101.734 17.1751ZM106.109 16.7537C106.025 16.6727 105.832 16.3161 105.589 16.2837C105.093 16.2188 105.017 16.6646 105.085 17.0049C105.143 17.2967 105.328 17.7667 105.521 17.7911C106.067 17.8802 106.126 17.4345 106.109 16.7537ZM106.773 11.4616C106.336 11.178 106.017 10.8538 105.899 10.9105C105.597 11.0645 105.379 11.3887 105.127 11.6399C105.353 11.7939 105.605 12.0856 105.807 12.0613C106.084 12.0289 106.328 11.7534 106.773 11.4616Z" fill="white"/>
<path d="M226.273 24.6149C225.483 24.5095 224.879 24.4285 224.106 24.3231C224.03 25.4172 223.938 26.3978 223.913 27.3785C223.896 28.4239 223.972 29.4694 223.963 30.5148C223.955 31.0335 223.913 31.5603 223.778 32.0627C223.518 33.0028 223.056 33.327 222.158 33.327C221.427 33.327 220.654 32.8164 220.444 32.0951C220.302 31.6008 220.251 31.0659 220.209 30.5472C220.1 29.2505 220.024 27.9458 219.907 26.6491C219.882 26.414 219.739 26.1871 219.621 25.8792C218.681 26.4059 218.227 27.2083 217.782 27.9863C217.085 29.21 216.06 30.0934 214.885 30.8471C214.7 30.9686 214.498 31.1226 214.288 31.1388C213.952 31.1713 213.482 31.2199 213.289 31.0416C213.096 30.8633 213.02 30.3527 213.146 30.1015C213.608 29.1614 214.07 28.197 214.725 27.3866C216.379 25.3524 217.723 23.1399 219.008 20.895C219.134 20.6681 219.243 20.425 219.319 20.1738C219.361 20.0198 219.327 19.8415 219.327 19.5578C218.639 19.5578 217.984 19.5578 217.337 19.5578C216.757 19.5578 216.161 19.6065 215.598 19.5254C214.868 19.412 214.137 19.1526 214.011 18.326C213.868 17.394 213.961 16.4701 214.851 15.8542C215.909 15.1248 217.102 14.7682 218.395 14.752C219.117 14.7439 219.848 14.7844 220.562 14.7439C221.544 14.6872 222.527 14.5818 223.51 14.4927C224.635 14.3873 225.752 14.2657 226.844 14.7196C227.793 15.1167 228.104 15.7002 227.6 16.5674C227.205 17.24 226.659 17.8397 226.122 18.4232C225.349 19.258 225.374 19.6551 226.315 20.2872C226.684 20.5385 227.012 20.8383 227.39 21.0733C228.196 21.5839 228.666 22.2809 228.675 23.2534C230.119 23.61 231.404 23.221 232.681 22.7995C233.185 22.6294 233.495 21.6325 233.319 21.0976C233.134 20.5303 232.697 20.3034 231.933 20.3845C231.53 20.425 231.127 20.4979 230.724 20.506C229.649 20.5222 229.12 20.1332 228.851 19.1769C228.565 18.1477 228.784 17.3778 229.666 16.9726C230.589 16.5511 231.581 16.2189 232.563 15.9676C233.487 15.7326 233.705 15.6273 233.747 14.7034C233.781 13.9659 233.806 13.2041 233.646 12.4909C233.403 11.3644 234.016 10.6755 234.763 10.0191C234.99 9.8165 235.284 9.67062 235.561 9.53285C236.855 8.8845 237.602 9.14384 238.081 10.4567C238.417 11.3968 238.635 12.3774 238.324 13.3824C238.224 13.7147 238.131 14.0631 238.114 14.4035C238.056 15.4003 238.442 15.765 239.467 15.7083C239.87 15.684 240.273 15.6111 240.668 15.5381C242.137 15.2626 243.876 16.851 243.506 18.6907C243.355 19.4444 242.792 19.8253 242.129 19.9793C241.129 20.2062 240.096 20.2953 239.072 20.425C238.719 20.4736 238.358 20.4898 237.93 20.5222C237.804 20.9031 237.636 21.2597 237.585 21.6325C237.493 22.4511 237.854 22.832 238.727 22.8644C241.205 22.9616 243.683 23.0265 246.16 23.1399C247.731 23.2048 248.864 24.0314 249.687 25.247C250.2 26.0007 250.065 26.6167 249.41 27.2407C248.184 28.4158 246.681 28.505 245.127 28.1322C242.885 27.5892 240.626 27.2002 238.308 27.346C236.922 27.4352 235.553 27.7756 234.176 27.8242C232.269 27.889 230.413 28.1889 228.591 28.6995C227.843 28.9102 227.096 29.1533 226.458 28.4644C225.718 27.6621 225.374 26.7625 225.769 25.7009C225.878 25.401 226.029 25.1336 226.273 24.6149Z" fill="white"/>
<path d="M137.426 15.5464C136.864 15.7085 136.494 15.8219 136.108 15.9192C134.991 16.219 133.824 15.676 133.446 14.6873C133.001 13.496 133.479 12.3209 134.655 11.8832C136.133 11.3403 137.678 11.0323 139.266 11.0404C139.627 11.0404 139.988 11.0647 140.349 11.0161C141.844 10.8297 141.894 10.7162 141.978 9.26557C142.046 8.10666 142.659 7.10173 143.415 6.25078C144.12 5.46466 145.522 5.67537 146.085 6.62357C146.48 7.28813 146.749 8.04993 146.925 8.79552C147.345 10.546 147.588 10.773 149.486 10.6676C150.158 10.6271 150.83 10.5541 151.494 10.4731C152.636 10.3272 153.652 10.6919 154.584 11.2349C156.004 12.0615 155.953 13.6419 154.542 14.4685C153.644 14.9953 152.661 15.0277 151.662 14.971C149.856 14.8656 149.713 14.9142 148.974 16.4946C147.748 19.1042 147.882 19.2176 149.848 21.0087C152.627 23.521 155.752 25.5795 159.161 27.2165C160.052 27.6461 160.942 28.0756 161.756 28.6186C163.109 29.5181 162.899 31.1471 161.395 31.8279C161.269 31.8846 161.152 31.9575 161.026 31.9818C158.876 32.3465 156.726 32.3709 154.584 31.9332C154.232 31.8603 153.828 31.5685 153.627 31.2687C151.972 28.805 149.604 26.9329 147.773 24.6232C147.479 24.2504 147.085 23.9343 146.707 23.6344C145.749 22.8807 145.254 22.9213 144.447 23.8857C142.911 25.7253 141.181 27.3705 139.173 28.7239C137.267 30.0125 135.184 30.9202 132.791 30.9769C132.48 30.985 132.144 30.9769 131.858 30.8797C131.136 30.6365 130.355 30.4177 130.296 29.4776C130.238 28.5294 130.33 27.6299 131.321 27.1031C132.278 26.6006 133.261 26.1792 134.403 26.2683C135.537 26.3575 136.536 26.009 137.426 25.3363C138.678 24.4044 139.954 23.5129 141.181 22.5566C141.743 22.1189 142.23 21.5273 142.079 20.7655C141.928 20.0118 141.34 19.6066 140.559 19.4526C140.072 19.3554 139.602 19.2257 139.115 19.1123C137.594 18.78 136.654 17.9047 137.309 16.4297C137.401 16.2352 137.376 16.0002 137.426 15.5464ZM142.331 15.2951C142.818 16.3487 143.557 16.5756 144.296 16.7053C144.775 16.7944 145.254 16.3163 145.296 15.83C145.355 15.2465 144.926 15.0196 144.464 15.0277C143.818 15.0358 143.171 15.1898 142.331 15.2951Z" fill="white"/>
<path d="M73.3053 25.5388C75.7996 25.3443 77.9076 25.1417 80.0156 25.0363C80.8974 24.9877 81.8212 25.0201 82.6862 25.2065C84.0468 25.5064 84.5927 26.6166 83.946 27.8161C82.9886 29.599 81.5777 30.9686 79.6124 31.7385C79.4865 31.7872 79.3353 31.771 79.2261 31.8358C77.6304 32.8164 75.9676 32.5976 74.2795 32.1032C72.6922 31.6413 71.0797 31.2361 69.4924 30.7741C67.8632 30.296 66.2423 29.7773 64.6214 29.291C63.8068 29.0479 62.9921 28.7886 62.1607 28.586C58.9021 27.7918 56.9453 24.9391 57.6172 21.7865C57.9531 20.2224 58.4654 18.6826 58.9021 17.1346C58.9693 16.8834 59.0533 16.6322 59.1037 16.3728C59.2717 15.5867 58.9441 15.2139 58.1295 15.2625C57.8607 15.2788 57.6088 15.3841 57.34 15.4327C56.0299 15.6434 54.9381 15.1977 54.2998 14.1928C53.8379 13.4553 53.9639 12.1019 54.661 11.2671C55.694 10.0353 56.9705 9.22486 58.6922 9.17624C60.6994 9.11951 62.6394 9.4842 64.5542 9.95425C66.4102 10.4162 66.9729 12.3126 65.7216 13.747C64.6382 14.987 63.6388 16.2675 63.0845 17.8154C62.7738 18.6744 62.5134 19.5497 62.3119 20.4412C62.0179 21.7379 63.3784 23.1723 64.6214 23.6262C65.7972 24.0557 67.0149 24.4123 68.2411 24.6635C70.0299 25.0525 71.8524 25.2956 73.3053 25.5388Z" fill="white"/>
<path d="M198.063 29.2022C197.038 28.8943 195.997 28.6349 194.997 28.2621C193.527 27.7192 192.083 27.1194 190.647 26.5035C188.589 25.6283 186.767 24.4531 185.801 22.3947C185.599 21.9732 185.515 21.4789 185.482 21.0088C185.339 18.7964 185.348 16.5677 185.054 14.3714C184.886 13.1072 185.339 12.1671 185.961 11.2189C186.901 9.7844 187.976 9.70336 189.202 10.9595C189.513 11.2756 189.765 11.6403 190 12.0131C190.37 12.5885 190.874 12.8397 191.579 12.8316C192.755 12.8154 193.922 12.864 195.098 12.8721C196.542 12.8802 197.685 13.6826 197.895 14.8496C198.079 15.8545 197.71 16.5677 196.677 16.8675C195.652 17.1674 194.577 17.3133 193.519 17.5321C192.511 17.7347 191.453 17.8157 190.512 18.1723C189.337 18.6181 189.219 19.4366 190.118 20.3119C190.689 20.8629 191.327 21.3735 192.016 21.7706C193.519 22.6378 195.006 23.4239 196.92 23.3429C198.65 23.2699 200.406 23.6508 202.153 23.8615C202.547 23.9102 202.942 24.0641 203.286 24.2586C204.37 24.8421 204.513 25.8795 203.639 26.7548C202.136 28.2703 200.33 29.1293 198.063 29.2022Z" fill="white"/>
<path d="M179.603 9.28174C180.745 9.41141 181.719 9.82472 182.282 10.8297C182.845 11.8427 182.433 12.7585 181.829 13.6256C181.778 13.6986 181.719 13.7796 181.644 13.812C179.326 14.9385 179.62 17.1267 179.536 19.0393C179.401 22.2 179.502 25.3606 179.914 28.5132C180.031 29.3965 179.838 30.3366 179.645 31.22C179.553 31.6495 179.175 32.0629 178.83 32.3789C178.259 32.9057 177.655 32.8409 177.033 32.3303C176.428 31.844 176.21 31.2038 176.168 30.4906C176.009 27.5407 175.883 24.5907 175.689 21.6489C175.597 20.3117 175.421 18.9745 175.185 17.6616C174.992 16.5756 174.9 16.5999 173.775 16.4783C173.203 16.4135 172.616 16.3 172.086 16.0812C171.028 15.6436 170.356 14.59 170.474 13.5932C170.608 12.4586 171.003 11.5266 172.347 11.1781C173.993 10.7567 175.597 10.157 177.235 9.69506C178.007 9.47624 178.822 9.41141 179.603 9.28174Z" fill="white"/>
<path d="M222.451 8.99003C223.686 8.90088 224.736 9.21695 225.701 10.1489C226.533 10.9513 226.348 12.3938 225.357 12.7828C223.409 13.5365 221.376 13.9255 219.294 13.3582C218.336 13.0989 217.883 12.3047 217.95 11.3241C218.017 10.3678 218.874 9.40334 219.865 9.20074C220.343 9.10349 220.839 9.03865 221.334 8.99003C221.695 8.96571 222.057 8.99003 222.451 8.99003Z" fill="white"/>
</svg>
