<svg width="30" height="30" viewBox="0 0 30 30" fill="none" xmlns="http://www.w3.org/2000/svg">
<path d="M9.19048 1.5C7.69841 1.5625 6.68254 1.79687 5.79365 2.14062C4.88889 2.5 4.11111 2.96875 3.33333 3.73438C2.55556 4.5 2.07937 5.26562 1.73016 6.17188C1.38095 7.04688 1.15873 8.04688 1.07937 9.51562C1.01587 10.9844 1 11.4531 1 15.1875C1.01587 18.9219 1.03175 19.3906 1.09524 20.8594C1.15873 22.3281 1.39683 23.3281 1.74603 24.1875C2.11111 25.0938 2.5873 25.8594 3.36508 26.625C4.14286 27.3906 4.92063 27.8594 5.84127 28.2031C6.73016 28.5469 7.74603 28.7656 9.2381 28.8438C10.7302 28.9063 11.2063 28.9219 15 28.9219C18.7937 28.9062 19.2698 28.9062 20.7619 28.8281C22.254 28.7656 23.2698 28.5312 24.1587 28.1875C25.0794 27.8281 25.8571 27.3594 26.6349 26.5938C27.4127 25.8281 27.8889 25.0625 28.2381 24.1562C28.5873 23.2813 28.8095 22.2812 28.8889 20.8125C28.9524 19.3438 28.9683 18.875 28.9683 15.1406C28.9524 11.4062 28.9524 10.9375 28.873 9.46875C28.8095 8 28.5714 7 28.2222 6.125C27.8571 5.21875 27.381 4.45312 26.6032 3.6875C25.8254 2.92188 25.0476 2.45312 24.127 2.10938C23.2381 1.76562 22.2222 1.54687 20.7302 1.46875C19.2222 1.42187 18.746 1.40625 14.9524 1.40625C11.1587 1.42188 10.6825 1.4375 9.19048 1.5ZM9.34921 26.3594C7.98413 26.2969 7.25397 26.0781 6.7619 25.8906C6.11111 25.6406 5.65079 25.3438 5.15873 24.8594C4.66667 24.375 4.36508 23.9219 4.11111 23.2812C3.92063 22.7969 3.68254 22.0625 3.61905 20.7344C3.55556 19.2812 3.53968 18.8438 3.52381 15.1719C3.52381 11.5 3.52381 11.0625 3.5873 9.60938C3.65079 8.26562 3.87302 7.54688 4.06349 7.0625C4.31746 6.42188 4.61905 5.96875 5.11111 5.48438C5.60318 5 6.06349 4.70312 6.71429 4.45312C7.20635 4.26562 7.95238 4.04688 9.30159 3.96875C10.7778 3.90625 11.2222 3.89062 14.9365 3.875C18.6667 3.875 19.1111 3.875 20.5873 3.9375C21.9524 4 22.6825 4.21875 23.1746 4.40625C23.8254 4.65625 24.3016 4.95312 24.7778 5.4375C25.2698 5.92188 25.5714 6.375 25.8254 7.01562C26.0159 7.5 26.2381 8.23438 26.3175 9.5625C26.381 11.0156 26.3968 11.4531 26.4127 15.1094C26.4286 18.7812 26.4127 19.2188 26.3492 20.6719C26.2857 22.0156 26.0635 22.7344 25.873 23.2344C25.619 23.875 25.3175 24.3281 24.8254 24.8125C24.3333 25.2969 23.873 25.5937 23.2222 25.8438C22.7302 26.0312 21.9841 26.25 20.6349 26.3281C19.1587 26.3906 18.7143 26.4062 14.9841 26.4219C11.2698 26.4375 10.8254 26.4219 9.34921 26.3594ZM20.746 7.8125C20.746 8.71875 21.5079 9.45312 22.4286 9.45312C23.3492 9.45312 24.1111 8.70313 24.0952 7.79688C24.0952 6.89062 23.3333 6.15625 22.4127 6.15625C21.4921 6.15625 20.746 6.90625 20.746 7.8125ZM7.80952 15.1719C7.80952 19.0781 11.0317 22.2188 15 22.2188C18.9524 22.2031 22.1587 19.0469 22.1587 15.1406C22.1429 11.25 18.9365 8.07812 14.9683 8.09375C11 8.10938 7.79365 11.2812 7.80952 15.1719ZM10.3175 15.1719C10.3175 12.6406 12.3968 10.5938 14.9683 10.5781C17.5397 10.5781 19.6349 12.625 19.6349 15.1562C19.6349 17.6875 17.5556 19.75 14.9841 19.75C12.4127 19.75 10.3333 17.7031 10.3175 15.1719Z" fill="#3D3D3D" fill-opacity="0.8"/>
</svg>
