<svg id="sns_list" xmlns="http://www.w3.org/2000/svg" width="675" height="225" viewBox="0 0 675 225">
  <g id="sns_facebook" transform="translate(-1018 300)">
    <g id="사각형_22" data-name="사각형 22" transform="translate(1018 -300)" fill="none" stroke="#fff" stroke-width="1" opacity="0.6">
      <rect width="225" height="225" stroke="none"/>
      <rect x="0.5" y="0.5" width="224" height="224" fill="none"/>
    </g>
    <g id="페이스북" transform="translate(1099.359 -248.628)" opacity="0.6">
      <g id="그룹_8" data-name="그룹 8" transform="translate(0 0)">
        <path id="패스_9" data-name="패스 9" d="M52.449,137.756V79.372H33.2v-20.2H52.449V37.374C52.449,24.25,64.3,15.5,73.926,15.5H95.482V33.795H85.539c-4.932,0-11.454,3.977-11.454,8.909V59.248H93.493V79.372H74.085v58.384H52.449Z" transform="translate(-33.2 -15.5)" fill="#fff"/>
      </g>
    </g>
  </g>
  <g id="그룹_10" data-name="그룹 10" transform="translate(-835 300)">
    <g id="사각형_23" data-name="사각형 23" transform="translate(1285 -300)" fill="none" stroke="#fff" stroke-width="1" opacity="0.6">
      <rect width="225" height="225" stroke="none"/>
      <rect x="0.5" y="0.5" width="224" height="224" fill="none"/>
    </g>
    <path id="패스_10" data-name="패스 10" d="M261.364,247.738a16.6,16.6,0,0,0-11.714-11.714c-10.338-2.774-51.776-2.774-51.776-2.774s-41.445,0-51.776,2.774a16.61,16.61,0,0,0-11.721,11.714c-2.766,10.338-2.766,31.9-2.766,31.9s0,21.562,2.766,31.9A16.585,16.585,0,0,0,146.1,323.251c10.338,2.766,51.776,2.766,51.776,2.766s41.438,0,51.776-2.766a16.6,16.6,0,0,0,11.714-11.714c2.766-10.338,2.766-31.9,2.766-31.9S264.13,258.076,261.364,247.738Zm-76.746,51.776v-39.76l34.429,19.884Z" transform="translate(1199.63 -467.123)" fill="#fff" opacity="0.6"/>
  </g>
  <g id="그룹_11" data-name="그룹 11" transform="translate(-1339 300)">
    <g id="사각형_24" data-name="사각형 24" transform="translate(1564 -300)" fill="none" stroke="#fff" stroke-width="1" opacity="0.6">
      <rect width="225" height="225" stroke="none"/>
      <rect x="0.5" y="0.5" width="224" height="224" fill="none"/>
    </g>
    <g id="인스타" transform="translate(1620.106 -243.851)" opacity="0.6">
      <g id="그룹_6" data-name="그룹 6" transform="translate(0 0)">
        <path id="SVGID_1_" d="M39.33,9.384a40.55,40.55,0,0,0-13.7,2.624,28.415,28.415,0,0,0-9.922,6.529,27.052,27.052,0,0,0-6.465,9.986,42.189,42.189,0,0,0-2.624,13.7c-.256,6.017-.32,7.937-.32,23.236.064,15.3.128,17.219.384,23.236a39.807,39.807,0,0,0,2.624,13.634,28.077,28.077,0,0,0,6.529,9.986,27.052,27.052,0,0,0,9.986,6.465,42.189,42.189,0,0,0,13.7,2.624c6.017.256,7.937.32,23.236.32,15.3-.064,17.219-.064,23.236-.384a40.549,40.549,0,0,0,13.7-2.624,28.077,28.077,0,0,0,9.986-6.529,27.053,27.053,0,0,0,6.465-9.986,42.188,42.188,0,0,0,2.624-13.7c.256-6.017.32-7.937.32-23.236-.064-15.3-.064-17.219-.384-23.236a40.549,40.549,0,0,0-2.624-13.7,28.077,28.077,0,0,0-6.529-9.986,27.052,27.052,0,0,0-9.986-6.465,42.189,42.189,0,0,0-13.7-2.624c-6.081-.192-8-.256-23.3-.256-15.3.064-17.219.128-23.236.384m.64,101.842a31.257,31.257,0,0,1-10.434-1.92,17.446,17.446,0,0,1-6.465-4.225,17.446,17.446,0,0,1-4.225-6.465,31.191,31.191,0,0,1-1.984-10.434c-.256-5.953-.32-7.745-.384-22.788,0-15.043,0-16.835.256-22.788a31.258,31.258,0,0,1,1.92-10.434,17.446,17.446,0,0,1,4.225-6.465,17.446,17.446,0,0,1,6.465-4.225A32.956,32.956,0,0,1,39.778,19.5c5.953-.256,7.745-.32,22.724-.384,15.043,0,16.835,0,22.788.256a31.258,31.258,0,0,1,10.434,1.92,16.945,16.945,0,0,1,6.465,4.225,17.446,17.446,0,0,1,4.225,6.465A32.956,32.956,0,0,1,108.4,42.414c.256,5.953.32,7.745.384,22.724.064,15.043,0,16.835-.256,22.788a32.136,32.136,0,0,1-1.92,10.5,18.825,18.825,0,0,1-10.69,10.69A32.956,32.956,0,0,1,85.482,111.1c-5.953.256-7.745.32-22.788.384-14.979.064-16.771,0-22.724-.256M85.93,35.245a6.753,6.753,0,1,0,6.721-6.785,6.775,6.775,0,0,0-6.721,6.785M33.761,65.394a28.933,28.933,0,1,0,28.869-29,28.9,28.9,0,0,0-28.869,29m10.114,0A18.787,18.787,0,1,1,62.694,84.149,18.836,18.836,0,0,1,43.874,65.394" transform="translate(-6.3 -9)" fill="#fff"/>
      </g>
    </g>
  </g>
</svg>
