<svg width="158" height="54" viewBox="0 0 158 54" fill="none" xmlns="http://www.w3.org/2000/svg">
<path d="M88.6666 25.6447V25.1426H75.2837V28.5657H83.059C81.0336 34.9768 73.7939 38.7431 73.7939 38.7431L75.7273 41.4464C75.7273 41.4464 88.6666 36.1067 88.6666 25.6447Z" fill="#454B52"/>
<path d="M84.4403 48.3676V41.7222H79.6948V49.2213C79.6948 51.5647 81.5612 53.2554 84.1223 53.2554H98.8276V49.8406H86.1059C84.9509 49.8406 84.4654 49.3803 84.4403 48.3676Z" fill="#454B52"/>
<path d="M88.1309 31.4449V34.8764H93.7719V43.1204H98.5174V24.7744H93.7719V31.4449H88.1309Z" fill="#454B52"/>
<path d="M129.025 38.5335H133.77V24.6401H129.025V28.9672H124.07V32.3485H129.025V38.5335Z" fill="#454B52"/>
<path d="M22.581 41.4629H4.51123V49.2214C4.51123 51.5649 6.37763 53.2555 8.93871 53.2555H23.6272V42.5174C23.6272 41.9316 23.1585 41.4629 22.581 41.4629ZM18.8901 49.8324H10.9223C9.76729 49.8408 9.27349 49.3805 9.25675 48.3677V44.886H18.8901V49.8324Z" fill="#454B52"/>
<path d="M23.9536 25.1839V25.0249H4.26009V28.448H18.9904C18.9904 28.674 18.9904 28.9586 18.9904 29.2348C18.9904 32.4152 18.8314 34.5076 18.7477 35.3613H0V38.7844H28.8832V35.3613H22.9743C23.2505 34.2816 23.9536 30.9756 23.9536 25.1839Z" fill="#454B52"/>
<path d="M53.4393 43.1787C57.3813 42.3167 60.2939 39.3622 60.2939 35.8638C60.2939 33.9806 59.4486 32.2565 58.0593 30.9257H63.0977V27.5026H53.4393V24.272H48.7022V27.5026H39.0437V30.9257H44.0822C42.6928 32.2565 41.8475 33.9722 41.8475 35.8638C41.8475 39.3706 44.7601 42.3167 48.7105 43.1787V46.6437H36.6333V50.0668H65.5082V46.6437H53.4393V43.1787ZM46.7269 35.755C46.7269 33.4199 48.677 31.5116 51.0707 31.5116C53.4644 31.5116 55.4145 33.4115 55.4145 35.755C55.4145 38.0984 53.4644 39.9983 51.0707 39.9983C48.677 39.9983 46.7269 38.0984 46.7269 35.755Z" fill="#454B52"/>
<path d="M119.952 38.2326H124.547C124.354 37.1194 122.672 28.1306 118.295 25.0171H112.997L108.921 38.3414H113.683L116.395 28.7499C118.688 31.4281 119.801 37.3621 119.952 38.2326Z" fill="#454B52"/>
<path d="M120.898 49.9581C119.692 49.9581 119.475 49.6484 119.475 48.6274V48.2005H133.778V41.0027C133.778 40.3834 133.326 39.8979 132.682 39.8979H114.813V43.1955H129.234V44.9615H114.93V49.2216C114.93 51.6906 116.704 53.2557 119.358 53.2557H134.08V49.9581H120.898Z" fill="#454B52"/>
<path d="M124.706 13.2323C124.706 13.6927 124.773 14.1697 124.957 14.6217C125.769 16.6304 127.836 17.8691 130.464 16.8229C131.092 16.5718 148.476 9.56648 148.476 9.56648C148.476 9.56648 141.629 26.9249 141.37 27.5693C140.374 30.0551 141.571 32.3065 143.604 33.0597C144.056 33.2271 144.525 33.3024 144.985 33.3024C146.651 33.2941 148.116 32.3148 148.835 30.3564C148.944 30.0634 157.506 6.55346 157.69 5.9927C157.799 5.65792 158 4.87118 158 4.32716C158.008 3.1638 157.573 2.06739 156.745 1.23881C155.916 0.418597 154.836 -0.00824877 153.69 0.000120751C153.129 0.000120751 152.677 0.100555 151.991 0.318163C151.581 0.452075 129.51 8.66258 127.627 9.36562C125.744 10.0687 124.698 11.5668 124.706 13.2323Z" fill="#ED1C24"/>
</svg>
