<?xml version="1.0" encoding="utf-8"?>
<!-- Generator: Adobe Illustrator 24.0.1, SVG Export Plug-In . SVG Version: 6.00 Build 0)  -->
<svg version="1.0" id="Layer_1" xmlns="http://www.w3.org/2000/svg" xmlns:xlink="http://www.w3.org/1999/xlink" x="0px" y="0px"
	 viewBox="0 0 74.98 59.4" style="enable-background:new 0 0 74.98 59.4;" xml:space="preserve">
<path d="M37,50.65l-2.05-1.85c-3.53-3.23-6.45-6.03-8.75-8.38c-2.3-2.35-4.13-4.45-5.5-6.3c-1.37-1.85-2.33-3.53-2.88-5.03
	C17.27,27.6,17,26.08,17,24.55c0-3,1.01-5.51,3.02-7.52S24.53,14,27.5,14c1.9,0,3.66,0.45,5.28,1.35c1.62,0.9,3.03,2.2,4.22,3.9
	c1.4-1.8,2.88-3.13,4.45-3.98C43.02,14.43,44.7,14,46.5,14c2.97,0,5.46,1.01,7.47,3.03c2.02,2.02,3.03,4.52,3.03,7.52
	c0,1.53-0.27,3.05-0.83,4.55c-0.55,1.5-1.51,3.17-2.88,5.02c-1.37,1.85-3.2,3.95-5.5,6.3c-2.3,2.35-5.22,5.14-8.75,8.38L37,50.65z
	 M37,46.7c3.37-3.1,6.14-5.76,8.33-7.98c2.18-2.22,3.92-4.16,5.2-5.82c1.28-1.67,2.18-3.15,2.7-4.45c0.52-1.3,0.78-2.6,0.78-3.9
	c0-2.2-0.7-4.01-2.1-5.42C50.5,17.71,48.7,17,46.5,17c-1.7,0-3.28,0.52-4.75,1.58C40.28,19.63,39.1,21.1,38.2,23h-2.45
	c-0.87-1.87-2.03-3.33-3.5-4.4C30.78,17.53,29.2,17,27.5,17c-2.2,0-4,0.71-5.4,2.13S20,22.35,20,24.55c0,1.3,0.26,2.61,0.77,3.92
	c0.52,1.32,1.42,2.82,2.7,4.5c1.28,1.68,3.02,3.63,5.23,5.83S33.67,43.63,37,46.7z"/>
</svg>
