<svg width="75" height="60" viewBox="0 0 75 60" fill="none" xmlns="http://www.w3.org/2000/svg">
<path d="M37 50.65L34.95 48.8C31.42 45.57 28.5 42.77 26.2 40.42C23.9 38.07 22.07 35.97 20.7 34.12C19.33 32.27 18.37 30.59 17.82 29.09C17.27 27.6 17 26.08 17 24.55C17 21.55 18.01 19.04 20.02 17.03C22.03 15.02 24.53 14 27.5 14C29.4 14 31.16 14.45 32.78 15.35C34.4 16.25 35.81 17.55 37 19.25C38.4 17.45 39.88 16.12 41.45 15.27C43.02 14.43 44.7 14 46.5 14C49.47 14 51.96 15.01 53.97 17.03C55.99 19.05 57 21.55 57 24.55C57 26.08 56.73 27.6 56.17 29.1C55.62 30.6 54.66 32.27 53.29 34.12C51.92 35.97 50.09 38.07 47.79 40.42C45.49 42.77 42.57 45.56 39.04 48.8L37 50.65ZM37 46.7C40.37 43.6 43.14 40.94 45.33 38.72C47.51 36.5 49.25 34.56 50.53 32.9C51.81 31.23 52.71 29.75 53.23 28.45C53.75 27.15 54.01 25.85 54.01 24.55C54.01 22.35 53.31 20.54 51.91 19.13C50.5 17.71 48.7 17 46.5 17C44.8 17 43.22 17.52 41.75 18.58C40.28 19.63 39.1 21.1 38.2 23H35.75C34.88 21.13 33.72 19.67 32.25 18.6C30.78 17.53 29.2 17 27.5 17C25.3 17 23.5 17.71 22.1 19.13C20.7 20.55 20 22.35 20 24.55C20 25.85 20.26 27.16 20.77 28.47C21.29 29.79 22.19 31.29 23.47 32.97C24.75 34.65 26.49 36.6 28.7 38.8C30.91 41 33.67 43.63 37 46.7Z" fill="black"/>
</svg>
