<svg xmlns="http://www.w3.org/2000/svg" width="40" height="36.65" viewBox="0 0 40 36.65">
  <path id="heart2" d="M37,50.65,34.95,48.8q-5.3-4.845-8.75-8.38a62.29,62.29,0,0,1-5.5-6.3,20.753,20.753,0,0,1-2.88-5.03A13.04,13.04,0,0,1,17,24.55,10.334,10.334,0,0,1,27.5,14a10.694,10.694,0,0,1,5.28,1.35A12.67,12.67,0,0,1,37,19.25a14.56,14.56,0,0,1,4.45-3.98A10.544,10.544,0,0,1,46.5,14,10.35,10.35,0,0,1,57,24.55a12.92,12.92,0,0,1-.83,4.55,20.713,20.713,0,0,1-2.88,5.02,62.29,62.29,0,0,1-5.5,6.3q-3.45,3.525-8.75,8.38Zm0-3.95q5.055-4.65,8.33-7.98a67.535,67.535,0,0,0,5.2-5.82,19.606,19.606,0,0,0,2.7-4.45,10.433,10.433,0,0,0,.78-3.9,7.372,7.372,0,0,0-2.1-5.42A7.293,7.293,0,0,0,46.5,17a7.946,7.946,0,0,0-4.75,1.58A11.135,11.135,0,0,0,38.2,23H35.75a11.059,11.059,0,0,0-3.5-4.4A7.9,7.9,0,0,0,27.5,17a7.255,7.255,0,0,0-5.4,2.13A7.388,7.388,0,0,0,20,24.55a10.76,10.76,0,0,0,.77,3.92,19.572,19.572,0,0,0,2.7,4.5A58.776,58.776,0,0,0,28.7,38.8Q32.015,42.1,37,46.7Z" transform="translate(-17 -14)"/>
</svg>
