<svg id="logo_w" xmlns="http://www.w3.org/2000/svg" width="162.781" height="33.091" viewBox="0 0 162.781 33.091">
  <path id="path178" d="M1901.776,3153.52a8.482,8.482,0,0,0-3.466-.979c-.979,0-1.605.354-1.605.9,0,1.653,5.568,1.188,5.568,5.007,0,2.1-1.765,3.322-4.2,3.322a7.418,7.418,0,0,1-3.948-1.06v-2.359a6.347,6.347,0,0,0,3.74,1.412c1.043,0,1.605-.368,1.605-1.011,0-1.8-5.57-1.14-5.57-5.071,0-1.894,1.637-3.145,4.173-3.145a8.945,8.945,0,0,1,3.707.851v2.134" transform="translate(-1858.384 -3134.364)" fill="#fff"/>
  <path id="path180" d="M2009.618,3198.5c-.241,0-.386-.145-.386-.513v-3.37c0-1.621-1.267-2.246-3.129-2.246a6.016,6.016,0,0,0-3.209.9v1.894a4.039,4.039,0,0,1,2.728-1.236c1.011,0,1.332.545,1.283,1.236-3.1.963-4.4,1.316-4.4,3.082a1.974,1.974,0,0,0,2.071,1.814,4.132,4.132,0,0,0,2.439-.835c.161.594.529.835,1.3.835a4.851,4.851,0,0,0,2.182-.674v-1.3C2009.954,3198.469,2009.777,3198.5,2009.618,3198.5Zm-2.713-.385a1.969,1.969,0,0,1-1.283.561.771.771,0,0,1-.754-.786c0-.738.658-1.06,2.038-1.557v1.782" transform="translate(-1957.788 -3172.653)" fill="#fff"/>
  <path id="path182" d="M2093.327,3194.065h2.487l1.572,4.076,1.589-4.076h2.471l-3.4,7.543h-1.3l-3.418-7.543" transform="translate(-2040.907 -3174.203)" fill="#fff"/>
  <path id="path184" d="M2195.065,3196.591h5.312a3.868,3.868,0,1,0-7.719-.353c0,2.31,1.685,3.82,4.285,3.82a5.362,5.362,0,0,0,3.306-.979v-1.461a4.345,4.345,0,0,1-2.745,1.06A2.163,2.163,0,0,1,2195.065,3196.591Zm1.653-2.841a1.592,1.592,0,0,1,1.6,1.621h-3.21a1.573,1.573,0,0,1,1.605-1.621" transform="translate(-2131.817 -3172.653)" fill="#fff"/>
  <path id="path186" d="M2343.474,3170.533h-2.7v3.05a1.075,1.075,0,0,0,1.14,1.187,3.236,3.236,0,0,0,1.556-.433v1.685a5.272,5.272,0,0,1-2.151.465,2.554,2.554,0,0,1-2.873-2.777v-3.177h-1.059v-.449l3.1-3.467h.289v2.328h2.7v1.589" transform="translate(-2264.279 -3149.082)" fill="#fff"/>
  <path id="path188" d="M2422.2,3156.881h.032a2.86,2.86,0,0,1,2.343-1.236,2.593,2.593,0,0,1,2.712,2.825v4.718h-2.327v-4.221c0-1.106-.481-1.62-1.2-1.62-.545,0-1.011.337-1.556,1.124v4.718h-2.327v-10.944h2.327v4.638" transform="translate(-2339.767 -3135.927)" fill="#fff"/>
  <path id="path190" d="M2524.08,3196.591h5.312a3.868,3.868,0,1,0-7.719-.353c0,2.31,1.685,3.82,4.284,3.82a5.359,5.359,0,0,0,3.306-.979v-1.461a4.34,4.34,0,0,1-2.744,1.06A2.163,2.163,0,0,1,2524.08,3196.591Zm1.652-2.841a1.591,1.591,0,0,1,1.6,1.621h-3.209a1.572,1.572,0,0,1,1.6-1.621" transform="translate(-2432.936 -3172.653)" fill="#fff"/>
  <path id="path192" d="M2683.7,3160.678a8.5,8.5,0,0,1-4.3,1.092c-4.252,0-6.371-2.761-6.371-5.586,0-2.921,2.391-5.648,6.58-5.648a7.717,7.717,0,0,1,3.964.963v2.439a7.637,7.637,0,0,0-3.772-1.124c-2.327,0-3.965,1.38-3.965,3.322,0,1.958,1.621,3.354,3.9,3.354a8.507,8.507,0,0,0,3.963-1.2v2.391" transform="translate(-2571.461 -3134.364)" fill="#fff"/>
  <path id="path194" d="M2820.347,3156.881h.032a2.86,2.86,0,0,1,2.343-1.236,2.593,2.593,0,0,1,2.712,2.825v4.718h-2.327v-4.221c0-1.106-.482-1.62-1.2-1.62-.545,0-1.011.337-1.556,1.124v4.718h-2.327v-10.944h2.327v4.638" transform="translate(-2704.159 -3135.927)" fill="#fff"/>
  <path id="path196" d="M2924.735,3201.468h2.327v-7.4h-2.327Z" transform="translate(-2801.826 -3174.207)" fill="#fff"/>
  <path id="path198" d="M2925.794,3151.817a1.284,1.284,0,1,1-1.283-1.283,1.288,1.288,0,0,1,1.283,1.283" transform="translate(-2800.446 -3134.362)" fill="#fff"/>
  <path id="path200" d="M2972.251,3163.188h2.327v-10.944h-2.327Z" transform="translate(-2845.315 -3135.927)" fill="#fff"/>
  <path id="path202" d="M3019.984,3152.242v3.868a4.3,4.3,0,0,0-1.926-.466,3.858,3.858,0,0,0-.129,7.687,3.035,3.035,0,0,0,2.055-.738v.593h2.327v-10.944Zm0,8.923a1.953,1.953,0,0,1-1.38.609c-1.091,0-1.781-.9-1.781-2.246,0-1.476.69-2.327,1.861-2.327a2.517,2.517,0,0,1,1.3.433v3.531" transform="translate(-2883.948 -3135.926)" fill="#fff"/>
  <path id="path204" d="M3128.806,3194.634h.032c.689-1.54,1.46-2.262,2.358-2.262a2.53,2.53,0,0,1,1.541.673l-.642,2.055a2.677,2.677,0,0,0-1.38-.545c-.85,0-1.4.8-1.909,2.167v3.193h-2.327v-7.4h2.327v2.119" transform="translate(-2986.466 -3172.653)" fill="#fff"/>
  <path id="path206" d="M3204.795,3196.591h5.312a3.868,3.868,0,1,0-7.719-.353c0,2.31,1.685,3.82,4.285,3.82a5.358,5.358,0,0,0,3.305-.979v-1.461a4.34,4.34,0,0,1-2.744,1.06A2.163,2.163,0,0,1,3204.795,3196.591Zm1.653-2.841a1.591,1.591,0,0,1,1.6,1.621h-3.209a1.573,1.573,0,0,1,1.605-1.621" transform="translate(-3055.939 -3172.653)" fill="#fff"/>
  <path id="path208" d="M3309.719,3193.571a2.98,2.98,0,0,1,2.407-1.2,2.59,2.59,0,0,1,2.7,2.841v4.7H3312.5v-4.51c0-1.043-.5-1.476-1.155-1.476-.578,0-1.012.3-1.621,1.219v4.767h-2.327v-7.4h2.327v1.059" transform="translate(-3152.041 -3172.65)" fill="#fff"/>
  <path id="path210" d="M1504.456,2968.817c1.475-1.517,2.131-2.219,2.028-2.635a1.394,1.394,0,0,0-.843-.816,2.156,2.156,0,0,0-1.567-.185,5.328,5.328,0,0,0-.827.755l-.465.457h0c-.256-.3-.528-.6-.8-.868a14.7,14.7,0,0,0-7.161-3.939,4.509,4.509,0,0,0-3.878-1.776,4.367,4.367,0,0,0-3.109,1.808,16.5,16.5,0,0,0-7.659,4.146v0a3.405,3.405,0,0,0-2.075.237,1.04,1.04,0,0,0-.646.63c-.048.189.01.494.716,1.42v0a16.25,16.25,0,0,0-3.118,10.3,14.842,14.842,0,0,0,4.3,9.8,14.625,14.625,0,0,0,3.057,2.343h0a18.1,18.1,0,0,0,16.869.562l.01,0a.917.917,0,0,0,.441-1.181l-.053-.146c-.716-1.957-2.9-7.914-1.1-13.089.753-2.166,2.647-4.4,4.27-6.138h0a14.436,14.436,0,0,1,1.718,8.466,13.19,13.19,0,0,1-3.131,7.249h0a.308.308,0,0,0-.085.214.529.529,0,0,0,.016.1l.138.392a.312.312,0,0,0,.52.1h.01a15.875,15.875,0,0,0,2.432-18.21h-.011ZM1484.894,2980a29.877,29.877,0,0,0-.987,8.767h0a14.949,14.949,0,0,1-2.909-2.259,14.677,14.677,0,0,1-4.23-8.768,13.6,13.6,0,0,1,2.071-8.861h0c.526.63,1.166,1.36,1.835,2.12a45.655,45.655,0,0,1,4.369,5.448c.505.851.26,1.869-.148,3.555Zm16.183-12.027c-3.463,3.034-6.639,4.59-9.432,4.609a11.341,11.341,0,0,1-6.6-2.357,25.936,25.936,0,0,1-4.063-3.707l-.085-.091h0a13.233,13.233,0,0,1,6.1-3.225v0h0s0,0,0,0a6.648,6.648,0,0,0-.324,2.752,6.26,6.26,0,0,0,2.1,4.254,4.2,4.2,0,0,0,6.109-.534,6.253,6.253,0,0,0,1.333-4.555,6.926,6.926,0,0,0-.145-.93h0a14.781,14.781,0,0,1,4.26,2.98c.253.254.5.522.745.8h0" transform="translate(-1475.034 -2959.793)" fill="#ed1b2d"/>
</svg>
