<svg id="logo" xmlns="http://www.w3.org/2000/svg" width="157.781" height="32.075" viewBox="0 0 157.781 32.075">
  <path id="path178" d="M1901.534,3153.428a8.218,8.218,0,0,0-3.36-.949c-.949,0-1.556.343-1.556.871,0,1.6,5.4,1.151,5.4,4.853,0,2.038-1.711,3.22-4.075,3.22a7.191,7.191,0,0,1-3.827-1.027v-2.287a6.153,6.153,0,0,0,3.625,1.369c1.011,0,1.556-.357,1.556-.98,0-1.743-5.4-1.1-5.4-4.916,0-1.835,1.587-3.049,4.045-3.049a8.672,8.672,0,0,1,3.593.825v2.068" transform="translate(-1859.475 -3134.86)"/>
  <path id="path180" d="M2009.4,3198.313c-.233,0-.374-.14-.374-.5v-3.267c0-1.572-1.229-2.177-3.033-2.177a5.83,5.83,0,0,0-3.111.871v1.835a3.916,3.916,0,0,1,2.644-1.2c.98,0,1.292.529,1.244,1.2-3,.934-4.262,1.276-4.262,2.987a1.914,1.914,0,0,0,2.007,1.758,4,4,0,0,0,2.364-.81c.156.576.513.81,1.26.81a4.7,4.7,0,0,0,2.115-.654v-1.26C2009.725,3198.282,2009.554,3198.313,2009.4,3198.313Zm-2.63-.373a1.908,1.908,0,0,1-1.244.544.747.747,0,0,1-.731-.762c0-.715.638-1.027,1.975-1.509v1.727" transform="translate(-1959.161 -3173.258)"/>
  <path id="path182" d="M2093.327,3194.065h2.411l1.524,3.951,1.54-3.951h2.4l-3.3,7.312h-1.26l-3.313-7.312" transform="translate(-2042.517 -3174.813)"/>
  <path id="path184" d="M2194.991,3196.461h5.149a3.749,3.749,0,1,0-7.482-.342c0,2.239,1.633,3.7,4.153,3.7a5.2,5.2,0,0,0,3.2-.949v-1.417a4.209,4.209,0,0,1-2.66,1.027A2.1,2.1,0,0,1,2194.991,3196.461Zm1.6-2.753a1.543,1.543,0,0,1,1.556,1.571h-3.112a1.525,1.525,0,0,1,1.556-1.571" transform="translate(-2133.686 -3173.259)"/>
  <path id="path186" d="M2343.287,3170.413h-2.613v2.956a1.042,1.042,0,0,0,1.1,1.15,3.135,3.135,0,0,0,1.508-.419v1.633a5.109,5.109,0,0,1-2.084.451,2.475,2.475,0,0,1-2.784-2.691v-3.08h-1.026v-.436l3-3.36h.28v2.256h2.613v1.54" transform="translate(-2266.525 -3149.62)"/>
  <path id="path188" d="M2422.128,3156.739h.031a2.772,2.772,0,0,1,2.271-1.2,2.513,2.513,0,0,1,2.629,2.738v4.573H2424.8v-4.091c0-1.073-.467-1.57-1.167-1.57-.529,0-.98.326-1.509,1.089v4.573h-2.256v-10.608h2.256v4.5" transform="translate(-2342.228 -3136.428)"/>
  <path id="path190" d="M2524.006,3196.461h5.149a3.749,3.749,0,1,0-7.482-.342c0,2.239,1.633,3.7,4.152,3.7a5.192,5.192,0,0,0,3.2-.949v-1.417a4.2,4.2,0,0,1-2.659,1.027A2.1,2.1,0,0,1,2524.006,3196.461Zm1.6-2.753a1.543,1.543,0,0,1,1.556,1.571h-3.111a1.524,1.524,0,0,1,1.555-1.571" transform="translate(-2435.662 -3173.259)"/>
  <path id="path192" d="M2683.373,3160.366a8.239,8.239,0,0,1-4.169,1.058c-4.121,0-6.175-2.676-6.175-5.414,0-2.831,2.318-5.475,6.377-5.475a7.48,7.48,0,0,1,3.843.933v2.364a7.4,7.4,0,0,0-3.656-1.089c-2.256,0-3.843,1.338-3.843,3.22,0,1.9,1.572,3.251,3.781,3.251a8.244,8.244,0,0,0,3.842-1.167v2.318" transform="translate(-2574.581 -3134.861)"/>
  <path id="path194" d="M2820.275,3156.739h.031a2.772,2.772,0,0,1,2.271-1.2,2.513,2.513,0,0,1,2.628,2.738v4.573h-2.256v-4.091c0-1.073-.467-1.57-1.167-1.57-.529,0-.98.326-1.508,1.089v4.573h-2.256v-10.608h2.256v4.5" transform="translate(-2707.656 -3136.428)"/>
  <path id="path196" d="M2924.735,3201.241h2.255v-7.171h-2.255Z" transform="translate(-2805.602 -3174.817)"/>
  <path id="path198" d="M2925.715,3151.777a1.244,1.244,0,1,1-1.244-1.244,1.248,1.248,0,0,1,1.244,1.244" transform="translate(-2804.217 -3134.859)"/>
  <path id="path200" d="M2972.251,3162.852h2.255v-10.608h-2.255Z" transform="translate(-2849.214 -3136.428)"/>
  <path id="path202" d="M3019.815,3152.242v3.749a4.17,4.17,0,0,0-1.866-.451,3.74,3.74,0,0,0-.125,7.451,2.941,2.941,0,0,0,1.991-.716v.575h2.256v-10.608Zm0,8.648a1.891,1.891,0,0,1-1.338.591c-1.057,0-1.726-.872-1.726-2.177,0-1.431.669-2.256,1.8-2.256a2.44,2.44,0,0,1,1.26.42v3.422" transform="translate(-2887.957 -3136.427)"/>
  <path id="path204" d="M3128.734,3194.564h.031c.668-1.493,1.416-2.193,2.286-2.193a2.451,2.451,0,0,1,1.494.653l-.622,1.991a2.6,2.6,0,0,0-1.338-.528c-.824,0-1.353.777-1.85,2.1v3.1h-2.256v-7.171h2.256v2.053" transform="translate(-2990.766 -3173.258)"/>
  <path id="path206" d="M3204.721,3196.461h5.149a3.749,3.749,0,1,0-7.482-.342c0,2.239,1.634,3.7,4.154,3.7a5.192,5.192,0,0,0,3.2-.949v-1.417a4.206,4.206,0,0,1-2.66,1.027A2.1,2.1,0,0,1,3204.721,3196.461Zm1.6-2.753a1.542,1.542,0,0,1,1.555,1.571h-3.111a1.525,1.525,0,0,1,1.556-1.571" transform="translate(-3060.438 -3173.259)"/>
  <path id="path208" d="M3309.648,3193.534a2.888,2.888,0,0,1,2.333-1.166,2.51,2.51,0,0,1,2.613,2.753v4.557h-2.256v-4.371c0-1.011-.482-1.431-1.119-1.431-.561,0-.981.3-1.571,1.182v4.62h-2.256v-7.171h2.256v1.026" transform="translate(-3156.813 -3173.256)"/>
  <path id="path210" d="M1503.552,2968.54c1.43-1.471,2.065-2.151,1.965-2.554a1.353,1.353,0,0,0-.817-.791,2.089,2.089,0,0,0-1.519-.179,5.138,5.138,0,0,0-.8.732l-.451.443h0c-.248-.29-.512-.58-.774-.841a14.254,14.254,0,0,0-6.941-3.818,4.371,4.371,0,0,0-3.758-1.721,4.232,4.232,0,0,0-3.014,1.752,15.989,15.989,0,0,0-7.424,4.019h0a3.3,3.3,0,0,0-2.011.229,1.008,1.008,0,0,0-.626.611c-.046.183.01.478.694,1.377v0a15.752,15.752,0,0,0-3.023,9.985,14.388,14.388,0,0,0,4.168,9.5,14.174,14.174,0,0,0,2.964,2.271h0a17.538,17.538,0,0,0,16.351.544l.01,0a.889.889,0,0,0,.428-1.145l-.051-.141c-.694-1.9-2.809-7.671-1.066-12.687a19.054,19.054,0,0,1,4.139-5.949h0a13.992,13.992,0,0,1,1.665,8.206,12.785,12.785,0,0,1-3.035,7.026h0a.3.3,0,0,0-.082.207.5.5,0,0,0,.016.1l.134.38a.3.3,0,0,0,.5.1h.01a15.387,15.387,0,0,0,2.357-17.651h-.011Zm-18.96,10.842a28.967,28.967,0,0,0-.957,8.5h0a14.479,14.479,0,0,1-2.819-2.19,14.226,14.226,0,0,1-4.1-8.5,13.186,13.186,0,0,1,2.007-8.589h0c.51.611,1.13,1.318,1.779,2.055a44.285,44.285,0,0,1,4.235,5.28c.49.825.252,1.812-.143,3.446Zm15.686-11.658c-3.357,2.941-6.435,4.449-9.142,4.467a11,11,0,0,1-6.4-2.285,25.159,25.159,0,0,1-3.938-3.593l-.082-.088h0a12.83,12.83,0,0,1,5.912-3.126h0s0,0,0,0a6.443,6.443,0,0,0-.314,2.667,6.068,6.068,0,0,0,2.04,4.124,4.068,4.068,0,0,0,5.921-.518,6.06,6.06,0,0,0,1.292-4.415,6.66,6.66,0,0,0-.14-.9h0a14.328,14.328,0,0,1,4.129,2.889c.245.246.488.506.722.778h0" transform="translate(-1475.034 -2959.793)" fill="#ed1b2d"/>
</svg>
