<svg width="105" height="46" viewBox="0 0 105 46" fill="none" xmlns="http://www.w3.org/2000/svg">
<path d="M23.041 46C35.7555 46 46.0819 35.7142 46.0819 23.0051C46.0819 10.2953 35.7555 0 23.041 0C10.3067 0 0 10.2953 0 23.0051C0 35.7142 10.3067 46 23.041 46Z" fill="#A50034"/>
<path d="M22.114 12.9092V33.0907H28.5362V31.2761H23.965V12.9092H22.114Z" fill="white"/>
<path d="M15.6834 18.4161C17.2113 18.4161 18.4429 17.1749 18.4429 15.6593C18.4429 14.1424 17.2113 12.8965 15.6834 12.8965C14.1555 12.8965 12.9238 14.1424 12.9238 15.6593C12.9238 17.1761 14.1555 18.4161 15.6834 18.4161Z" fill="white"/>
<path d="M23.9644 3.75434C23.7235 3.74243 23.2657 3.72754 23.0469 3.72754C12.4117 3.72754 3.75629 12.3774 3.75629 22.9955C3.75629 28.153 5.76231 32.9871 9.39581 36.6224C13.0442 40.2493 17.8855 42.2533 23.0469 42.2533C28.1886 42.2533 33.0287 40.2493 36.6706 36.6224C40.313 32.9871 42.3286 28.153 42.3286 22.9955V22.1385H41.5482H28.5541V23.9121H40.4913C40.4913 23.9508 40.4913 24.139 40.4829 24.1878C39.876 33.2652 32.2871 40.4548 23.0469 40.4548C18.3696 40.4548 13.9837 38.6377 10.6829 35.3378C7.3713 32.0515 5.54651 27.6736 5.54651 22.9949C5.54651 18.343 7.3713 13.9425 10.6829 10.6461C13.9837 7.35268 18.3696 5.53564 23.0469 5.53564C23.2484 5.53564 23.7384 5.53564 23.9644 5.54755V3.75434Z" fill="white"/>
<path d="M63.41 7.74383H56.4864V37.6871H77.752V31.8584H63.41V7.74383V7.74383ZM92.9829 26.2763H98.6218V31.5118C97.5822 31.9072 95.5547 32.3015 93.6256 32.3015C87.3941 32.3015 85.3183 29.1397 85.3183 22.7178C85.3183 16.5938 87.2951 12.9829 93.5266 12.9829C96.9896 12.9829 98.9676 14.0704 100.597 16.1459L104.902 12.192C102.28 8.44003 97.6799 7.30371 93.3787 7.30371C83.6831 7.30371 78.5902 12.5898 78.5902 22.6678C78.5902 32.6969 83.1895 38.1314 93.3299 38.1314C97.978 38.1314 102.528 36.9462 105 35.2173V20.6918H92.9829V26.2763Z" fill="white"/>
</svg>
