<svg xmlns="http://www.w3.org/2000/svg" xmlns:xlink="http://www.w3.org/1999/xlink" width="156.448" height="34.833" viewBox="0 0 156.448 34.833">
  <defs>
    <radialGradient id="radial-gradient" cx="0.75" cy="0.3" r="1.033" gradientTransform="translate(0.006) scale(0.987 1)" gradientUnits="objectBoundingBox">
      <stop offset="0" stop-color="#008ed2"/>
      <stop offset="0.66" stop-color="#00398f"/>
      <stop offset="1" stop-color="#0072c0"/>
    </radialGradient>
    <radialGradient id="radial-gradient-2" cx="0.77" cy="0.58" r="0.951" gradientTransform="translate(-0.01) scale(1.021 1)" gradientUnits="objectBoundingBox">
      <stop offset="0" stop-color="#b9e6fb"/>
      <stop offset="0.63" stop-color="#00b8eb"/>
      <stop offset="1" stop-color="#88d5f8"/>
    </radialGradient>
  </defs>
  <g id="logo" transform="translate(-210.393 -286.737)">
    <g id="그룹_1" data-name="그룹 1" transform="translate(210.393 286.737)">
      <path id="패스_1" data-name="패스 1" d="M240.1,291.976a17.415,17.415,0,1,1-20.465-3.041l2.408-.178S231.231,283.99,240.1,291.976Z" transform="translate(-210.393 -286.899)" fill-rule="evenodd" fill="url(#radial-gradient)"/>
      <path id="패스_2" data-name="패스 2" d="M216.19,307.339a12.241,12.241,0,0,0,10.686,1.908,11.816,11.816,0,0,0,7.24-6.306c1.385-3.218.643-7.374-3.067-8.566-2.274-.731-5.039.318-6.825,1.742-1.475,1.175-3.044,2.946-5.19,2.175-1.676-.6-2.293-2.706-.857-5.218,1.425-2.493,4.473-4.912,9.328-5.249a17.949,17.949,0,0,1,12.646,3.989,17.425,17.425,0,0,0-20.467-3.041,13.985,13.985,0,0,0-5.949,6.259c-1.9,4.067-1.484,9.279,2.454,12.307Zm-3.521-11.705c-2.353,5.524-.624,12.32,4.825,15.4,4.97,2.816,11.871,2.47,16.195-1.722,1.393-1.351,2.456-3.39,4.167-4.269a2.668,2.668,0,0,1,2.632.012c1.369.915,1.413,2.591.915,4.159a11.117,11.117,0,0,1-2.731,4.25,16.086,16.086,0,0,1-7.418,4.413,17.486,17.486,0,0,1-14.8-2.665,14.93,14.93,0,0,1-4.92-17.126A17.306,17.306,0,0,1,212.669,295.634Z" transform="translate(-210.445 -286.737)" fill-rule="evenodd" fill="url(#radial-gradient-2)"/>
    </g>
    <path id="패스_3" data-name="패스 3" d="M373.9,296.016v-1.223l-8.63.007q0,3.233.005,6.465a1.486,1.486,0,0,0,.492,1.179,1.986,1.986,0,0,0,1.352.428l7.468-.006v-1.241l-6.688.005,0-5.61,6.006,0Zm-73.02,9.78a1.1,1.1,0,0,0-1.129-1.056l-3.656,0,0-2.919,6.927-.005v-1.223l-2.963,0a3.338,3.338,0,0,0,.4-.629,4.711,4.711,0,0,0,.241-.7,7.018,7.018,0,0,0,.179-.726,4.226,4.226,0,0,0,.059-.707q0-1.2,0-2.4a1.1,1.1,0,0,0-1.13-1.056l-11.1.009v1.223l9.591-.007,0,2.307a11.06,11.06,0,0,1-.089,1.4,5.232,5.232,0,0,1-.33,1.293l-11.192.009v1.223l6.788-.005,0,2.919-4.846,0v1.223l9.591-.007,0,4.438,2.663,0q0-2.3,0-4.6Zm67.975-.776h-1.5q0,1.834,0,3.67a1.486,1.486,0,0,0,.522,1.214,2.074,2.074,0,0,0,1.361.427l10.232-.007V309.1l-9.491.007,0-3.032a1.1,1.1,0,0,0-1.128-1.056Zm9.1-10.789a1.1,1.1,0,0,1,1.13,1.056q0,1.211,0,2.421l2.944,0v1.223l-2.944,0,.006,7.112-2.623,0q0-5.906-.01-11.812l1.494,0Zm-21.935.016-1.4,0q.007,8.046.012,16.094l2.463,0-.008-10.415h1.8l.008,10.415h2.463q0-7.551-.011-15.1a1.031,1.031,0,0,0-1.06-.992h-1.4q0,2.228,0,4.456h-1.8q0-1.731,0-3.463a1.031,1.031,0,0,0-1.06-.993Zm-17.144.013h-1.506q0,4.351.007,8.7l2.643,0v-2.429l2.943,0v-1.224l-2.943,0V297.9l2.943,0V296.67l-2.943,0v-1.348a1.106,1.106,0,0,0-1.138-1.065Zm-21.726.016h-1.4q.005,8.046.012,16.094h2.464l-.007-9.489h1.5l.007,9.489h2.462q-.006-7.551-.012-15.1a1.03,1.03,0,0,0-1.059-.992h-1.4q0,2.692,0,5.382h-1.5q0-2.194,0-4.389a1.031,1.031,0,0,0-1.061-.993Zm-45.229,11.13h-1.494q0,1.677,0,3.355a1.5,1.5,0,0,0,.511,1.213,2.032,2.032,0,0,0,1.352.428l10.01-.007v-1.223l-9.25.007,0-2.718a1.1,1.1,0,0,0-1.128-1.056Zm8.881-11.1a1.1,1.1,0,0,1,1.129,1.057l0,2.717,2.943,0v1.241l-2.943,0,.005,6.815-2.623,0q0-5.916-.008-11.83Zm64.726,1.035v1.467l2.883,0a12.888,12.888,0,0,1-.508,3.862,12.17,12.17,0,0,1-.829,2.116,9.092,9.092,0,0,1-1.051,1.634,10.286,10.286,0,0,1-1.13,1.181l1.524,1.483a5.01,5.01,0,0,0,1.021-.892,11.508,11.508,0,0,0,.94-1.206,10.507,10.507,0,0,0,.77-1.329,11.754,11.754,0,0,0,.53-1.257,12.739,12.739,0,0,0,1.523,1.885q.88.909,2.044,1.956l.94-1.242q-.661-.592-1.2-1.109c-.359-.343-.692-.7-1-1.056a10.65,10.65,0,0,1-.862-1.136,12.44,12.44,0,0,1-.781-1.4,10.881,10.881,0,0,0,.279-1.59q.1-.908.159-1.87l2.663,0v-1.5l-7.909.006Zm-10.293,8.168a5.615,5.615,0,0,0-1.821.281,4.792,4.792,0,0,0-1.482.822,3.918,3.918,0,0,0-1.04,1.216,3.152,3.152,0,0,0,0,2.848,3.9,3.9,0,0,0,1.042,1.2,4.67,4.67,0,0,0,1.483.829,6.235,6.235,0,0,0,3.634,0,4.587,4.587,0,0,0,1.491-.831,4.024,4.024,0,0,0,1.029-1.2,3.064,3.064,0,0,0,0-2.848,4.044,4.044,0,0,0-1.031-1.213,4.67,4.67,0,0,0-1.492-.821,5.652,5.652,0,0,0-1.813-.278Zm0,1.223a1.61,1.61,0,0,1,.862.235,2.361,2.361,0,0,1,.661.6,2.991,2.991,0,0,1,.412.812,2.73,2.73,0,0,1,.15.865,2.7,2.7,0,0,1-.579,1.677,2.114,2.114,0,0,1-.651.569,1.706,1.706,0,0,1-.85.219,1.765,1.765,0,0,1-.861-.208,2.114,2.114,0,0,1-.66-.559,2.672,2.672,0,0,1-.412-.8,2.805,2.805,0,0,1-.151-.9,2.935,2.935,0,0,1,.14-.883,2.733,2.733,0,0,1,.4-.813,2.224,2.224,0,0,1,.661-.594,1.682,1.682,0,0,1,.88-.228Zm-9.754-6.109a3.485,3.485,0,0,1,.349-1.555,3.864,3.864,0,0,1,1.07-1.294,5.225,5.225,0,0,1,1.561-.892,6.012,6.012,0,0,1,3.733,0,5.121,5.121,0,0,1,1.572.89,3.887,3.887,0,0,1,1.052,1.293,3.624,3.624,0,0,1,0,3.111,3.918,3.918,0,0,1-1.051,1.294,5.106,5.106,0,0,1-1.571.892,6.029,6.029,0,0,1-3.734,0,5.256,5.256,0,0,1-1.562-.89,3.857,3.857,0,0,1-1.072-1.293,3.478,3.478,0,0,1-.352-1.555Zm7.068-.023a3.253,3.253,0,0,0-.161-1,3.379,3.379,0,0,0-.441-.9,2.179,2.179,0,0,0-.7-.646,1.8,1.8,0,0,0-.921-.244,1.824,1.824,0,0,0-.952.245,2.273,2.273,0,0,0-.69.648,2.78,2.78,0,0,0-.42.891,3.774,3.774,0,0,0-.139,1.014,3.845,3.845,0,0,0,.141,1.048,2.8,2.8,0,0,0,.421.891,2.267,2.267,0,0,0,.691.646,1.824,1.824,0,0,0,.952.244,1.793,1.793,0,0,0,.92-.245,2.187,2.187,0,0,0,.7-.647,3.389,3.389,0,0,0,.439-.9,3.291,3.291,0,0,0,.16-1.04Zm-23.938-2.831,3.644,0v-1.136l-3.644,0v1.136ZM310.432,299a1.3,1.3,0,0,1,.753.227,2.022,2.022,0,0,1,.551.576,3.033,3.033,0,0,1,.35.761,2.816,2.816,0,0,1,.131.812,3.1,3.1,0,0,1-.12.83,2.782,2.782,0,0,1-.359.778,1.944,1.944,0,0,1-.55.568,1.336,1.336,0,0,1-.752.219,1.4,1.4,0,0,1-.79-.218,2.006,2.006,0,0,1-.571-.568,2.57,2.57,0,0,1-.33-.769,3.279,3.279,0,0,1-.111-.838,3.04,3.04,0,0,1,.119-.83,2.5,2.5,0,0,1,.36-.761,2.153,2.153,0,0,1,.571-.568,1.324,1.324,0,0,1,.749-.219Zm-4.165-2.041v1.188l2.6,0a6.014,6.014,0,0,0-1.94,1.486,2.748,2.748,0,0,0-.639,1.748,3.136,3.136,0,0,0,.3,1.362,3.646,3.646,0,0,0,.921,1.153,4.09,4.09,0,0,0,1.313.786,4.731,4.731,0,0,0,1.611.261,4.548,4.548,0,0,0,1.6-.264,3.957,3.957,0,0,0,1.281-.786,4.4,4.4,0,0,0,.93-1.145,2.819,2.819,0,0,0,.329-1.372,2.721,2.721,0,0,0-.652-1.748,6.174,6.174,0,0,0-1.934-1.483l2.583,0V296.95l-8.308.007Zm-36.091-1.684,4.545,0v-1.136l-4.544,0v1.136Zm-2.763.823V297.3l2.582,0a5.491,5.491,0,0,0-1.461,1.451,2.828,2.828,0,0,0-.479,1.538,3.1,3.1,0,0,0,.311,1.372,3.4,3.4,0,0,0,.972,1.161,4.938,4.938,0,0,0,1.433.795,5.028,5.028,0,0,0,1.672.269,5.142,5.142,0,0,0,1.671-.264,4.573,4.573,0,0,0,1.431-.8,3.606,3.606,0,0,0,.96-1.163,3.015,3.015,0,0,0,.318-1.373,2.762,2.762,0,0,0-.5-1.554,5.631,5.631,0,0,0-1.463-1.433l2.623,0v-1.205l-10.07.007Zm5.027,1.727a1.423,1.423,0,0,1,.791.226,2.359,2.359,0,0,1,.611.576,2.99,2.99,0,0,1,.381.786,2.855,2.855,0,0,1,.141.874,3.054,3.054,0,0,1-.13.874,2.734,2.734,0,0,1-.39.8,2.038,2.038,0,0,1-.6.577,1.546,1.546,0,0,1-1.612,0,2.238,2.238,0,0,1-.611-.6,2.964,2.964,0,0,1-.373-2.516,2.8,2.8,0,0,1,.37-.786,2.24,2.24,0,0,1,.611-.6A1.456,1.456,0,0,1,272.441,297.822Z" transform="translate(-15.189 -1.97)" fill="#004485"/>
    <g id="그룹_2" data-name="그룹 2" transform="translate(253.916 311.866)">
      <path id="패스_4" data-name="패스 4" d="M269.719,321.1h.943v1.982l1.7-1.982h1.16l-1.935,2.173,2.015,2.437h-1.233l-1.692-2.14h-.013v2.14h-.943Z" transform="translate(-269.719 -321.019)" fill="#004485"/>
      <path id="패스_5" data-name="패스 5" d="M279.073,320.99a2.386,2.386,0,1,1-2.3,2.371A2.176,2.176,0,0,1,279.073,320.99Zm0,4.042c.964,0,1.321-.839,1.321-1.671,0-.813-.384-1.645-1.321-1.645s-1.321.832-1.321,1.645C277.753,324.193,278.11,325.032,279.073,325.032Z" transform="translate(-271.597 -320.99)" fill="#004485"/>
      <path id="패스_6" data-name="패스 6" d="M285.352,321.1h1.018c1.011,0,2.217-.033,2.217,1.249a1.062,1.062,0,0,1-.97,1.07v.013c.256.02.4.271.5.475l.755,1.8h-1.051l-.566-1.44c-.135-.343-.257-.475-.654-.475h-.3v1.915h-.943Zm.943,1.968h.31c.464,0,1-.066,1-.64,0-.555-.525-.6-1-.6h-.31Z" transform="translate(-273.883 -321.019)" fill="#004485"/>
      <path id="패스_7" data-name="패스 7" d="M292.311,321.1h2.776v.726h-1.833v1.136h1.678v.726h-1.678v1.295H295.1v.726h-2.789Z" transform="translate(-275.737 -321.019)" fill="#004485"/>
      <path id="패스_8" data-name="패스 8" d="M299.825,321.1h1.065l1.846,4.61h-1.045l-.4-1.057h-1.907l-.412,1.057h-.977Zm.519.924h-.013l-.681,1.9h1.375Z" transform="translate(-277.25 -321.019)" fill="#004485"/>
      <path id="패스_9" data-name="패스 9" d="M312.305,320.99A2.386,2.386,0,1,1,310,323.361,2.176,2.176,0,0,1,312.305,320.99Zm0,4.042c.963,0,1.321-.839,1.321-1.671,0-.813-.384-1.645-1.321-1.645s-1.321.832-1.321,1.645C310.984,324.193,311.341,325.032,312.305,325.032Z" transform="translate(-280.449 -320.99)" fill="#004485"/>
      <path id="패스_10" data-name="패스 10" d="M322.033,325.613a4.9,4.9,0,0,1-1.07.145c-1.523,0-2.582-.746-2.582-2.305a2.311,2.311,0,0,1,2.582-2.464,3.167,3.167,0,0,1,1.064.191l-.068.779a1.976,1.976,0,0,0-1.018-.244,1.553,1.553,0,0,0-1.577,1.671,1.534,1.534,0,0,0,1.6,1.645,2.652,2.652,0,0,0,1.03-.192Z" transform="translate(-282.681 -320.99)" fill="#004485"/>
      <path id="패스_11" data-name="패스 11" d="M325.543,321.1h2.775v.726h-1.833v1.136h1.678v.726h-1.678v1.295h1.847v.726h-2.789Z" transform="translate(-284.589 -321.019)" fill="#004485"/>
      <path id="패스_12" data-name="패스 12" d="M333.057,321.1h1.065l1.847,4.61h-1.045l-.4-1.057h-1.907l-.412,1.057h-.977Zm.519.924h-.012l-.681,1.9h1.374Z" transform="translate(-286.102 -321.019)" fill="#004485"/>
      <path id="패스_13" data-name="패스 13" d="M339.689,321.1h1.159l1.793,3.448h.013V321.1h.9v4.61H342.4l-1.8-3.447h-.012v3.447h-.9Z" transform="translate(-288.357 -321.019)" fill="#004485"/>
      <path id="패스_14" data-name="패스 14" d="M351.412,321.1h2.615v.726h-1.67v1.136h1.591v.726h-1.591v2.021h-.944Z" transform="translate(-291.48 -321.019)" fill="#004485"/>
      <path id="패스_15" data-name="패스 15" d="M359.233,320.99a2.386,2.386,0,1,1-2.3,2.371A2.177,2.177,0,0,1,359.233,320.99Zm0,4.042c.964,0,1.321-.839,1.321-1.671,0-.813-.384-1.645-1.321-1.645s-1.321.832-1.321,1.645C357.912,324.193,358.27,325.032,359.233,325.032Z" transform="translate(-292.949 -320.99)" fill="#004485"/>
      <path id="패스_16" data-name="패스 16" d="M365.576,321.1h.944v2.662c0,.786.255,1.3.977,1.3s.977-.515.977-1.3V321.1h.943v2.946c0,1.235-.715,1.744-1.92,1.744s-1.921-.508-1.921-1.744Z" transform="translate(-295.253 -321.019)" fill="#004485"/>
      <path id="패스_17" data-name="패스 17" d="M373.425,321.1h1.16l1.792,3.448h.012V321.1h.9v4.61h-1.152l-1.8-3.447h-.013v3.447h-.9Z" transform="translate(-297.344 -321.019)" fill="#004485"/>
      <path id="패스_18" data-name="패스 18" d="M381.357,321.1h1.287c1.442,0,2.715.475,2.715,2.305s-1.274,2.305-2.715,2.305h-1.287Zm.943,3.884h.526a1.579,1.579,0,0,0,0-3.158H382.3Z" transform="translate(-299.456 -321.019)" fill="#004485"/>
      <path id="패스_19" data-name="패스 19" d="M390.395,321.1h1.064l1.847,4.61h-1.045l-.4-1.057h-1.907l-.412,1.057h-.977Zm.519.924H390.9l-.681,1.9h1.374Z" transform="translate(-301.376 -321.019)" fill="#004485"/>
      <path id="패스_20" data-name="패스 20" d="M397.033,321.824h-1.348V321.1h3.64v.726h-1.348v3.884h-.943Z" transform="translate(-303.273 -321.019)" fill="#004485"/>
      <path id="패스_21" data-name="패스 21" d="M402.589,321.1h.945v4.61h-.945Z" transform="translate(-305.112 -321.019)" fill="#004485"/>
      <path id="패스_22" data-name="패스 22" d="M408.483,320.99a2.386,2.386,0,1,1-2.3,2.371A2.177,2.177,0,0,1,408.483,320.99Zm0,4.042c.964,0,1.321-.839,1.321-1.671,0-.813-.384-1.645-1.321-1.645s-1.321.832-1.321,1.645C407.162,324.193,407.52,325.032,408.483,325.032Z" transform="translate(-306.068 -320.99)" fill="#004485"/>
      <path id="패스_23" data-name="패스 23" d="M414.808,321.1h1.159l1.793,3.448h.012V321.1h.9v4.61h-1.153l-1.8-3.447h-.012v3.447h-.9Z" transform="translate(-308.367 -321.019)" fill="#004485"/>
    </g>
  </g>
</svg>
