<svg xmlns="http://www.w3.org/2000/svg" width="25.54" height="22.236" viewBox="0 0 25.54 22.236">
  <g id="sns_naver" transform="translate(-623.26 -266.06)">
    <path id="패스_44" data-name="패스 44" d="M650.7,314.51a1.423,1.423,0,1,0,1.424,1.422A1.421,1.421,0,0,0,650.7,314.51Z" transform="translate(-21.54 -40.722)" fill="#fff"/>
    <path id="패스_45" data-name="패스 45" d="M698.582,314a1.532,1.532,0,1,0,1.532,1.532A1.532,1.532,0,0,0,698.582,314Z" transform="translate(-61.137 -40.333)" fill="#fff"/>
    <path id="패스_46" data-name="패스 46" d="M645.383,266.06H626.677a3.317,3.317,0,0,0-3.417,3.207v10.421a3.317,3.317,0,0,0,3.417,3.207h6.607l2.248,4.97s.155.43.529.43h0c.375,0,.529-.43.529-.43l2.248-4.97h6.547a3.317,3.317,0,0,0,3.417-3.207V269.267A3.317,3.317,0,0,0,645.383,266.06Zm-14.1,9.21c-.011,1.905-2.109,1.959-2.109,1.959a1.8,1.8,0,0,1-1.27-.5v.344h-1.528v-5.915c-.005,0-.007,0,0,0v0c.1.014,1.528,0,1.528,0v2.262c.359-.576,1.4-.566,1.4-.566A2.107,2.107,0,0,1,631.283,275.27Zm2.692-2.242v4.051h-1.5v-4.01c0-.545-.722-.7-.722-.7v-1.414C634.146,271.049,633.974,273.028,633.974,273.028Zm3.545,4.2a2.189,2.189,0,1,1,2.508-2.166A2.356,2.356,0,0,1,637.519,277.233Zm8.194,0a2.047,2.047,0,0,1-2.206,2.057h-.678v-1.333h.41s.936.081.925-1.273c0,0-.182.549-1.5.549,0,0-1.862-.125-1.862-1.831v-.647a2.042,2.042,0,0,1,2.087-1.908,1.577,1.577,0,0,1,1.3.545v-.433h1.517Z" transform="translate(0)" fill="#fff"/>
    <path id="패스_47" data-name="패스 47" d="M730.907,314.12a1.5,1.5,0,1,0,1.5,1.5A1.5,1.5,0,0,0,730.907,314.12Z" transform="translate(-87.924 -40.421)" fill="#fff"/>
  </g>
</svg>
