<svg xmlns="http://www.w3.org/2000/svg" width="20.423" height="20.411" viewBox="0 0 20.423 20.411">
  <g id="sns_insta" transform="translate(115.665 326)">
    <g id="그룹_20" data-name="그룹 20" transform="translate(-115.665 -326)">
      <path id="SVGID_1_" d="M12.281,9.07a7.342,7.342,0,0,0-2.48.475A5.145,5.145,0,0,0,8,10.727a4.9,4.9,0,0,0-1.171,1.808,7.639,7.639,0,0,0-.475,2.48c-.046,1.09-.058,1.437-.058,4.207s.023,3.118.07,4.207A7.208,7.208,0,0,0,6.845,25.9a5.084,5.084,0,0,0,1.182,1.808,4.9,4.9,0,0,0,1.808,1.171,7.639,7.639,0,0,0,2.48.475c1.09.046,1.437.058,4.207.058s3.118-.012,4.207-.07a7.342,7.342,0,0,0,2.48-.475,5.084,5.084,0,0,0,1.808-1.182,4.9,4.9,0,0,0,1.171-1.808,7.639,7.639,0,0,0,.475-2.48c.046-1.09.058-1.437.058-4.207s-.012-3.118-.07-4.207a7.342,7.342,0,0,0-.475-2.48A5.084,5.084,0,0,0,25,10.692a4.9,4.9,0,0,0-1.808-1.171,7.639,7.639,0,0,0-2.48-.475C19.606,9.012,19.258,9,16.488,9s-3.118.023-4.207.07M12.4,27.51a5.66,5.66,0,0,1-1.889-.348,3.409,3.409,0,0,1-1.936-1.936,5.648,5.648,0,0,1-.359-1.889c-.046-1.078-.058-1.4-.07-4.126s0-3.048.046-4.126A5.66,5.66,0,0,1,8.537,13.2a3.409,3.409,0,0,1,1.936-1.936,5.967,5.967,0,0,1,1.889-.359c1.078-.046,1.4-.058,4.115-.07s3.048,0,4.126.046a5.66,5.66,0,0,1,1.889.348,3.068,3.068,0,0,1,1.171.765,3.159,3.159,0,0,1,.765,1.171,5.967,5.967,0,0,1,.359,1.889c.046,1.078.058,1.4.07,4.115s0,3.048-.046,4.126a5.819,5.819,0,0,1-.348,1.9,3.409,3.409,0,0,1-1.936,1.936,5.967,5.967,0,0,1-1.889.359c-1.078.046-1.4.058-4.126.07s-3.037,0-4.115-.046m8.322-13.758a1.223,1.223,0,1,0,1.217-1.229,1.227,1.227,0,0,0-1.217,1.229m-9.446,5.459A5.239,5.239,0,1,0,16.5,13.961a5.234,5.234,0,0,0-5.227,5.251m1.831,0a3.4,3.4,0,1,1,3.408,3.4,3.411,3.411,0,0,1-3.408-3.4" transform="translate(-6.3 -9)" fill="#fff"/>
    </g>
  </g>
</svg>
