<svg xmlns="http://www.w3.org/2000/svg" width="26.948" height="18.864" viewBox="0 0 26.948 18.864">
  <path id="sns_youtube" d="M158,236.2a3.376,3.376,0,0,0-2.382-2.382c-2.1-.564-10.529-.564-10.529-.564s-8.428,0-10.529.564a3.378,3.378,0,0,0-2.383,2.382,37.681,37.681,0,0,0,0,12.974,3.373,3.373,0,0,0,2.383,2.382c2.1.563,10.529.563,10.529.563s8.426,0,10.529-.563A3.376,3.376,0,0,0,158,249.17a37.681,37.681,0,0,0,0-12.974Zm-15.606,10.529V238.64l7,4.043Z" transform="translate(-131.61 -233.25)" fill="#fff"/>
</svg>
