<svg width="208" height="44" viewBox="0 0 208 44" fill="none" xmlns="http://www.w3.org/2000/svg">
<path d="M19.0006 19.9104L17.2857 0.205322C14.1732 1.3298 11.9353 4.40871 11.9353 8.03201C11.9353 8.9066 12.0725 9.74549 12.3126 10.5398C11.0093 9.567 9.41447 8.99584 7.69103 8.99584C4.99868 8.99584 2.62359 10.388 1.18311 12.5121L19.0006 19.9104Z" fill="#00AE4D"/>
<path d="M18.5034 21.7397L0 17.224C0.0428717 20.651 2.14358 23.828 5.45328 24.9704C6.25069 25.247 7.06525 25.372 7.86267 25.3898C6.56794 26.3715 5.5476 27.7637 4.99884 29.4683C4.14998 32.1277 4.67301 34.9121 6.15637 37.0004L18.5034 21.7397Z" fill="#00AE4D"/>
<path d="M20.0381 22.6589L10.272 39.6331C13.4273 40.6326 16.9685 39.5171 19.0264 36.5899C19.5237 35.8849 19.8838 35.1174 20.141 34.332C20.6469 35.9116 21.6072 37.3574 23.0049 38.4105C25.1742 40.0615 27.8837 40.3917 30.2502 39.5617L20.0381 22.6589Z" fill="#00AE4D"/>
<path d="M20.887 19.9103L38.3786 12.155C36.3894 9.41523 32.891 8.14796 29.5813 9.26351C28.7839 9.53124 28.0551 9.92392 27.4035 10.4148C27.8922 8.82622 27.9265 7.06811 27.3949 5.36356C26.5717 2.70409 24.5654 0.776422 22.1817 0L20.887 19.9103Z" fill="#00AE4D"/>
<path d="M21.4102 21.597L33.9115 36.5007C35.7979 33.6895 35.8665 29.8253 33.8258 26.8981C33.3285 26.1931 32.7454 25.5951 32.1024 25.0954C33.7058 25.0864 35.3177 24.5688 36.7153 23.5157C38.8932 21.8737 40.0336 19.2945 39.9993 16.6975L21.4102 21.597Z" fill="#00AE4D"/>
<path d="M64.18 6.26V24.78H66.7V6.26H64.18ZM61.7 13.38V15.52H64.78V13.38H61.7ZM60.04 6.58V23.9H62.5V6.58H60.04ZM51.32 18.42V20.6H52.62C55 20.6 56.96 20.54 59.2 20.1L59 17.94C56.8 18.34 54.9 18.42 52.62 18.42H51.32ZM51.32 8.4V19.46H53.96V10.54H58.16V8.4H51.32ZM79.1184 11.04V13.18H83.4384V11.04H79.1184ZM82.0384 6.28V19.78H84.6984V6.28H82.0384ZM72.4784 22.34V24.46H85.1184V22.34H72.4784ZM72.4784 18.64V23.6H75.1384V18.64H72.4784ZM73.4784 8.7V9.86C73.4784 12.2 72.1584 14.62 69.0984 15.62L70.4384 17.74C73.9984 16.56 75.6384 13.34 75.6384 9.86V8.7H73.4784ZM74.0384 8.7V9.86C74.0384 13.16 75.6184 16.24 79.0584 17.38L80.3584 15.3C77.4384 14.32 76.1784 12.02 76.1784 9.86V8.7H74.0384ZM69.8184 7.52V9.62H79.7784V7.52H69.8184ZM87.6169 14.96V17.08H104.377V14.96H87.6169ZM94.6769 12.18V15.78H97.3169V12.18H94.6769ZM89.6369 11.34V13.44H102.477V11.34H89.6369ZM89.6369 7.06V12.68H92.2769V9.14H102.377V7.06H89.6369ZM95.9369 18C91.9369 18 89.4969 19.22 89.4969 21.4C89.4969 23.58 91.9369 24.8 95.9369 24.8C99.9369 24.8 102.357 23.58 102.357 21.4C102.357 19.22 99.9369 18 95.9369 18ZM95.9369 20C98.4169 20 99.6769 20.46 99.6769 21.4C99.6769 22.36 98.4169 22.78 95.9369 22.78C93.4569 22.78 92.1969 22.36 92.1969 21.4C92.1969 20.46 93.4569 20 95.9369 20ZM113.015 15.16V17.74H115.675V15.16H113.015ZM105.995 13.6V15.68H122.735V13.6H105.995ZM108.055 6.8V12.62H120.615V6.8H108.055ZM117.995 8.86V10.58H110.675V8.86H117.995ZM107.915 16.84V18.82H118.095V19.76H107.935V23.24H110.555V21.6H120.715V16.84H107.915ZM107.935 22.66V24.66H121.195V22.66H107.935ZM124.414 20.48V22.64H141.174V20.48H124.414ZM131.434 16.52V21H134.094V16.52H131.434ZM126.174 7.44V17.08H139.354V7.44H136.714V10.28H128.814V7.44H126.174ZM128.814 12.36H136.714V14.96H128.814V12.36ZM143.512 8.56V10.68H158.792V8.56H143.512ZM142.812 20.78V22.92H159.572V20.78H142.812ZM149.832 18.34V21.62H152.472V18.34H149.832ZM151.132 11.48C147.272 11.48 144.852 12.82 144.852 15.1C144.852 17.38 147.272 18.72 151.132 18.72C154.992 18.72 157.412 17.38 157.412 15.1C157.412 12.82 154.992 11.48 151.132 11.48ZM151.132 13.54C153.452 13.54 154.692 14.04 154.692 15.1C154.692 16.16 153.452 16.64 151.132 16.64C148.812 16.64 147.572 16.16 147.572 15.1C147.572 14.04 148.812 13.54 151.132 13.54ZM149.832 6.46V9.88H152.472V6.46H149.832ZM168.551 10.48V12.62H171.491V10.48H168.551ZM174.451 6.26V20.12H176.971V6.26H174.451ZM170.751 6.56V19.56H173.251V6.56H170.751ZM164.511 22.34V24.46H177.451V22.34H164.511ZM164.511 18.5V23.68H167.171V18.5H164.511ZM164.451 7.5V9.88C164.451 12.08 163.471 14.48 160.951 15.72L162.391 17.74C165.331 16.36 166.531 13.14 166.531 9.88V7.5H164.451ZM164.991 7.5V9.88C164.991 13.04 166.031 16 168.771 17.28L170.231 15.26C167.911 14.14 167.031 12.02 167.031 9.88V7.5H164.991ZM192.489 6.24V24.82H195.129V6.24H192.489ZM189.309 12.76V14.92H192.789V12.76H189.309ZM180.429 18.48V20.64H181.909C185.029 20.64 187.429 20.56 190.109 20.14L189.869 18.02C187.249 18.44 184.969 18.48 181.909 18.48H180.429ZM180.429 7.8V19.16H183.069V9.96H189.009V7.8H180.429ZM182.469 12.96V15.04H188.369V12.96H182.469Z" fill="white"/>
<path d="M51.4621 40H53.9061C56.7791 40 58.3391 38.232 58.3391 35.203C58.3391 32.174 56.7791 30.471 53.8411 30.471H51.4621V40ZM52.6711 39.012V31.459H53.7501C55.9861 31.459 57.1041 32.785 57.1041 35.203C57.1041 37.621 55.9861 39.012 53.7501 39.012H52.6711ZM61.9333 40.182C62.8043 40.182 63.5973 39.727 64.2603 39.168H64.3123L64.4163 40H65.3913V35.671C65.3913 33.916 64.6633 32.772 62.9343 32.772C61.8033 32.772 60.8153 33.266 60.1653 33.682L60.6333 34.514C61.1793 34.137 61.9203 33.747 62.7523 33.747C63.9093 33.747 64.1953 34.618 64.1953 35.528C61.1923 35.866 59.8663 36.633 59.8663 38.167C59.8663 39.441 60.7503 40.182 61.9333 40.182ZM62.2583 39.22C61.5693 39.22 61.0233 38.895 61.0233 38.089C61.0233 37.179 61.8163 36.594 64.1953 36.321V38.284C63.5193 38.895 62.9473 39.22 62.2583 39.22ZM70.4805 40.182C71.4425 40.182 72.1835 39.857 72.8075 39.454L72.3785 38.661C71.8585 39.012 71.2995 39.233 70.6235 39.233C69.2715 39.233 68.3615 38.258 68.2705 36.763H73.0285C73.0675 36.581 73.0805 36.334 73.0805 36.087C73.0805 34.059 72.0665 32.772 70.2725 32.772C68.6475 32.772 67.1005 34.189 67.1005 36.49C67.1005 38.804 68.5955 40.182 70.4805 40.182ZM68.2575 35.905C68.4135 34.514 69.2975 33.721 70.2855 33.721C71.4035 33.721 72.0405 34.488 72.0405 35.905H68.2575ZM74.0907 43.159C75.4817 43.159 76.0277 42.249 76.0277 40.819V32.941H74.8317V40.806C74.8317 41.664 74.6627 42.21 73.9607 42.21C73.7137 42.21 73.4667 42.132 73.2977 42.08L73.0637 42.977C73.2977 43.068 73.6617 43.159 74.0907 43.159ZM75.4167 31.485C75.8717 31.485 76.2097 31.186 76.2097 30.692C76.2097 30.237 75.8717 29.938 75.4167 29.938C74.9617 29.938 74.6367 30.237 74.6367 30.692C74.6367 31.186 74.9617 31.485 75.4167 31.485ZM81.2588 40.182C82.2208 40.182 82.9618 39.857 83.5858 39.454L83.1568 38.661C82.6368 39.012 82.0778 39.233 81.4018 39.233C80.0498 39.233 79.1398 38.258 79.0488 36.763H83.8068C83.8458 36.581 83.8588 36.334 83.8588 36.087C83.8588 34.059 82.8448 32.772 81.0508 32.772C79.4258 32.772 77.8788 34.189 77.8788 36.49C77.8788 38.804 79.3738 40.182 81.2588 40.182ZM79.0358 35.905C79.1918 34.514 80.0758 33.721 81.0638 33.721C82.1818 33.721 82.8188 34.488 82.8188 35.905H79.0358ZM88.3531 40.182C90.0821 40.182 91.6161 38.817 91.6161 36.49C91.6161 34.124 90.0821 32.772 88.3531 32.772C86.6111 32.772 85.0771 34.124 85.0771 36.49C85.0771 38.817 86.6111 40.182 88.3531 40.182ZM88.3531 39.194C87.1181 39.194 86.2991 38.102 86.2991 36.49C86.2991 34.852 87.1181 33.76 88.3531 33.76C89.5751 33.76 90.3941 34.852 90.3941 36.49C90.3941 38.102 89.5751 39.194 88.3531 39.194ZM93.4939 40H94.6769V34.878C95.3789 34.176 95.8859 33.799 96.6009 33.799C97.5369 33.799 97.9399 34.358 97.9399 35.684V40H99.1359V35.528C99.1359 33.734 98.4599 32.772 96.9779 32.772C96.0029 32.772 95.2749 33.305 94.6119 33.968H94.5729L94.4559 32.941H93.4939V40ZM104.44 40H105.532V34.735C105.532 33.903 105.441 32.759 105.376 31.914H105.428L106.182 34.085L107.989 39.051H108.795L110.602 34.085L111.356 31.914H111.421C111.356 32.759 111.265 33.903 111.265 34.735V40H112.383V30.471H110.927L109.12 35.58C108.899 36.23 108.691 36.893 108.457 37.569H108.405C108.171 36.893 107.95 36.23 107.716 35.58L105.883 30.471H104.44V40ZM117.732 40.182C118.694 40.182 119.435 39.857 120.059 39.454L119.63 38.661C119.11 39.012 118.551 39.233 117.875 39.233C116.523 39.233 115.613 38.258 115.522 36.763H120.28C120.319 36.581 120.332 36.334 120.332 36.087C120.332 34.059 119.318 32.772 117.524 32.772C115.899 32.772 114.352 34.189 114.352 36.49C114.352 38.804 115.847 40.182 117.732 40.182ZM115.509 35.905C115.665 34.514 116.549 33.721 117.537 33.721C118.655 33.721 119.292 34.488 119.292 35.905H115.509ZM124.116 40.182C124.558 40.182 125.026 40.052 125.416 39.909L125.182 39.025C124.961 39.116 124.636 39.22 124.389 39.22C123.57 39.22 123.297 38.713 123.297 37.855V33.903H125.208V32.941H123.297V30.952H122.296L122.166 32.941L121.061 33.019V33.903H122.114V37.829C122.114 39.233 122.608 40.182 124.116 40.182ZM126.806 40H127.989V35.476C128.457 34.267 129.185 33.838 129.77 33.838C130.056 33.838 130.212 33.877 130.459 33.955L130.68 32.915C130.446 32.811 130.238 32.772 129.926 32.772C129.133 32.772 128.405 33.331 127.924 34.228H127.885L127.768 32.941H126.806V40ZM134.412 40.182C136.141 40.182 137.675 38.817 137.675 36.49C137.675 34.124 136.141 32.772 134.412 32.772C132.67 32.772 131.136 34.124 131.136 36.49C131.136 38.817 132.67 40.182 134.412 40.182ZM134.412 39.194C133.177 39.194 132.358 38.102 132.358 36.49C132.358 34.852 133.177 33.76 134.412 33.76C135.634 33.76 136.453 34.852 136.453 36.49C136.453 38.102 135.634 39.194 134.412 39.194ZM139.552 42.977H140.735V40.598L140.709 39.363C141.346 39.883 142.009 40.182 142.646 40.182C144.271 40.182 145.714 38.778 145.714 36.373C145.714 34.189 144.739 32.772 142.906 32.772C142.087 32.772 141.307 33.227 140.67 33.76H140.631L140.514 32.941H139.552V42.977ZM142.464 39.181C141.996 39.181 141.372 38.986 140.735 38.453V34.735C141.424 34.098 142.022 33.76 142.62 33.76C143.959 33.76 144.492 34.813 144.492 36.386C144.492 38.128 143.621 39.181 142.464 39.181ZM150.357 40.182C152.086 40.182 153.62 38.817 153.62 36.49C153.62 34.124 152.086 32.772 150.357 32.772C148.615 32.772 147.081 34.124 147.081 36.49C147.081 38.817 148.615 40.182 150.357 40.182ZM150.357 39.194C149.122 39.194 148.303 38.102 148.303 36.49C148.303 34.852 149.122 33.76 150.357 33.76C151.579 33.76 152.398 34.852 152.398 36.49C152.398 38.102 151.579 39.194 150.357 39.194ZM156.746 40.182C157.071 40.182 157.253 40.13 157.422 40.078L157.266 39.168C157.123 39.194 157.071 39.194 157.019 39.194C156.837 39.194 156.681 39.051 156.681 38.674V29.665H155.498V38.596C155.498 39.61 155.849 40.182 156.746 40.182ZM159.192 40H160.375V32.941H159.192V40ZM159.79 31.485C160.245 31.485 160.583 31.186 160.583 30.692C160.583 30.237 160.245 29.938 159.79 29.938C159.322 29.938 158.997 30.237 158.997 30.692C158.997 31.186 159.322 31.485 159.79 31.485ZM164.982 40.182C165.424 40.182 165.892 40.052 166.282 39.909L166.048 39.025C165.827 39.116 165.502 39.22 165.255 39.22C164.436 39.22 164.163 38.713 164.163 37.855V33.903H166.074V32.941H164.163V30.952H163.162L163.032 32.941L161.927 33.019V33.903H162.98V37.829C162.98 39.233 163.474 40.182 164.982 40.182ZM168.942 40.182C169.813 40.182 170.606 39.727 171.269 39.168H171.321L171.425 40H172.4V35.671C172.4 33.916 171.672 32.772 169.943 32.772C168.812 32.772 167.824 33.266 167.174 33.682L167.642 34.514C168.188 34.137 168.929 33.747 169.761 33.747C170.918 33.747 171.204 34.618 171.204 35.528C168.201 35.866 166.875 36.633 166.875 38.167C166.875 39.441 167.759 40.182 168.942 40.182ZM169.267 39.22C168.578 39.22 168.032 38.895 168.032 38.089C168.032 37.179 168.825 36.594 171.204 36.321V38.284C170.528 38.895 169.956 39.22 169.267 39.22ZM174.642 40H175.825V34.878C176.527 34.176 177.034 33.799 177.749 33.799C178.685 33.799 179.088 34.358 179.088 35.684V40H180.284V35.528C180.284 33.734 179.608 32.772 178.126 32.772C177.151 32.772 176.423 33.305 175.76 33.968H175.721L175.604 32.941H174.642V40ZM189.189 40.182C190.424 40.182 191.347 39.688 192.101 38.804L191.451 38.05C190.84 38.726 190.138 39.116 189.241 39.116C187.421 39.116 186.277 37.621 186.277 35.216C186.277 32.837 187.473 31.355 189.28 31.355C190.086 31.355 190.723 31.719 191.217 32.252L191.88 31.472C191.321 30.861 190.424 30.302 189.267 30.302C186.849 30.302 185.042 32.174 185.042 35.242C185.042 38.336 186.81 40.182 189.189 40.182ZM193.774 40H194.957V32.941H193.774V40ZM194.372 31.485C194.827 31.485 195.165 31.186 195.165 30.692C195.165 30.237 194.827 29.938 194.372 29.938C193.904 29.938 193.579 30.237 193.579 30.692C193.579 31.186 193.904 31.485 194.372 31.485ZM199.564 40.182C200.006 40.182 200.474 40.052 200.864 39.909L200.63 39.025C200.409 39.116 200.084 39.22 199.837 39.22C199.018 39.22 198.745 38.713 198.745 37.855V33.903H200.656V32.941H198.745V30.952H197.744L197.614 32.941L196.509 33.019V33.903H197.562V37.829C197.562 39.233 198.056 40.182 199.564 40.182ZM202.359 43.055C203.776 43.055 204.504 41.989 204.998 40.598L207.663 32.941H206.506L205.232 36.867C205.05 37.504 204.842 38.206 204.647 38.856H204.582C204.348 38.206 204.114 37.491 203.893 36.867L202.45 32.941H201.228L204.062 40.013L203.906 40.546C203.607 41.417 203.1 42.067 202.307 42.067C202.112 42.067 201.904 42.015 201.774 41.963L201.54 42.912C201.761 43.003 202.034 43.055 202.359 43.055Z" fill="white"/>
</svg>
